<?xml version="1.0" encoding="utf-8"?>
<!-- Generator: Adobe Illustrator 21.0.0, SVG Export Plug-In . SVG Version: 6.00 Build 0)  -->
<svg version="1.1" id="Layer_1" xmlns="http://www.w3.org/2000/svg" xmlns:xlink="http://www.w3.org/1999/xlink" x="0px" y="0px"
	 viewBox="0 0 368.3 364" style="enable-background:new 0 0 368.3 364;" xml:space="preserve">
<style type="text/css">
	.st0{fill:url(#SVGID_1_);}
	.st1{fill:#BDD0FB;}
	.st2{opacity:0.51;fill:#FFFFFF;}
	.st3{fill:url(#SVGID_2_);}
	.st4{fill:url(#SVGID_3_);}
	.st5{fill:#91B3FA;}
	.st6{opacity:0.65;fill:#FFFFFF;}
	.st7{fill:#7D97F4;}
	.st8{fill:url(#SVGID_4_);}
	.st9{fill:#FFFFFF;}
	.st10{fill:url(#SVGID_5_);}
	.st11{fill:url(#SVGID_6_);}
	.st12{fill:url(#SVGID_7_);}
	.st13{fill:url(#SVGID_8_);}
	.st14{fill:url(#SVGID_9_);}
	.st15{fill:url(#SVGID_10_);}
	.st16{fill:url(#SVGID_11_);}
	.st17{fill:url(#SVGID_12_);}
	.st18{fill:url(#SVGID_13_);}
	.st19{fill:url(#SVGID_14_);}
	.st20{fill:url(#SVGID_15_);}
	.st21{fill:url(#SVGID_16_);}
	.st22{fill:url(#SVGID_17_);}
	.st23{fill:url(#SVGID_18_);}
	.st24{fill:url(#SVGID_19_);}
	.st25{fill:url(#SVGID_20_);}
	.st26{fill:url(#SVGID_21_);}
	.st27{fill:url(#SVGID_22_);}
	.st28{fill:url(#SVGID_23_);}
	.st29{fill:url(#SVGID_24_);}
	.st30{fill:url(#SVGID_25_);}
	.st31{fill:url(#SVGID_26_);}
	.st32{fill:url(#SVGID_27_);}
	.st33{fill:url(#SVGID_28_);}
	.st34{fill:url(#SVGID_29_);}
	.st35{fill:url(#SVGID_30_);}
	.st36{fill:url(#SVGID_31_);}
	.st37{fill:url(#SVGID_32_);}
	.st38{fill:url(#SVGID_33_);}
	.st39{fill:url(#SVGID_34_);}
	.st40{opacity:0.7;fill:#FFFFFF;}
	.st41{fill:url(#SVGID_35_);}
	.st42{fill:url(#SVGID_36_);}
	.st43{fill:url(#SVGID_37_);}
	.st44{fill:url(#SVGID_38_);}
	.st45{fill:url(#SVGID_39_);}
	.st46{fill:url(#SVGID_40_);}
	.st47{fill:url(#SVGID_41_);}
	.st48{fill:url(#SVGID_42_);}
	.st49{fill:url(#SVGID_43_);}
	.st50{fill:url(#SVGID_44_);}
	.st51{fill:url(#SVGID_45_);}
	.st52{fill:url(#SVGID_46_);}
	.st53{fill:url(#SVGID_47_);}
	.st54{fill:url(#SVGID_48_);}
	.st55{fill:url(#SVGID_49_);}
	.st56{fill:url(#SVGID_50_);}
	.st57{fill:url(#SVGID_51_);}
	.st58{fill:url(#SVGID_52_);}
	.st59{fill:url(#SVGID_53_);}
	.st60{fill:url(#SVGID_54_);}
	.st61{fill:url(#SVGID_55_);}
	.st62{fill:url(#SVGID_56_);}
	.st63{fill:url(#SVGID_57_);}
	.st64{fill:url(#SVGID_58_);}
	.st65{fill:url(#SVGID_59_);}
	.st66{fill:url(#SVGID_60_);}
	.st67{fill:url(#SVGID_61_);}
	.st68{fill:url(#SVGID_62_);}
	.st69{fill:url(#SVGID_63_);}
	.st70{fill:url(#SVGID_64_);}
</style>
<g>
	<linearGradient id="SVGID_1_" gradientUnits="userSpaceOnUse" x1="411.5154" y1="471.4648" x2="87.0394" y2="68.4859">
		<stop  offset="0" style="stop-color:#DAE3FE"/>
		<stop  offset="1" style="stop-color:#E9EFFD"/>
	</linearGradient>
	<path class="st0" d="M323.3,311.8c-7.5,7.8-14.6,12.8-20.2,16.8c-66,46.8-144,33.1-160.6,29.8c-24.5-4.9-71.9-14.4-106.1-54.2
		c-51.8-60.2-43.7-155-3.6-217.6c7.3-11.4,46.2-75,125.1-85.2c47.8-6.2,103.4,6.3,143.7,39.6C386.2,111.2,380.1,252.7,323.3,311.8z"
		/>
	<g>
		<g>
			<path class="st1" d="M150.7,334.3c-2.3-41.6-17.7-79.5-72.5-106.5C78.2,227.8,69.7,329.8,150.7,334.3z"/>
			<path class="st2" d="M135.7,316.3c-0.1,0-0.2,0-0.3-0.1c-31-30.2-50.3-74.6-50.5-75c-0.1-0.2,0-0.5,0.2-0.6
				c0.2-0.1,0.5,0,0.6,0.2c0.2,0.4,19.5,44.6,50.3,74.7c0.2,0.2,0.2,0.4,0,0.6C135.9,316.2,135.8,316.3,135.7,316.3z"/>
		</g>
		<g>
			<path class="st1" d="M246.2,331.7c37.4,3.5,73.3-5.3,104.6-50.5C350.8,281.2,260.9,260.1,246.2,331.7z"/>
			<path class="st2" d="M267.4,319.5c-0.1,0-0.2,0-0.3-0.1c-0.2-0.2-0.2-0.4-0.1-0.6c11.2-13.2,29.5-21.6,42.9-26.3
				c14.5-5.1,26.5-7.1,26.6-7.1c0.2,0,0.5,0.1,0.5,0.4c0,0.2-0.1,0.5-0.4,0.5c-0.5,0.1-47.8,8.1-69,33.1
				C267.7,319.5,267.5,319.5,267.4,319.5z"/>
		</g>
		<linearGradient id="SVGID_2_" gradientUnits="userSpaceOnUse" x1="211.4132" y1="256.8133" x2="274.8596" y2="121.1084">
			<stop  offset="0" style="stop-color:#09005D"/>
			<stop  offset="1" style="stop-color:#1A0F91"/>
		</linearGradient>
		<polygon class="st3" points="155.1,252.9 147.2,323.4 238.4,323.4 226.6,252.9 		"/>
		<g>
			<linearGradient id="SVGID_3_" gradientUnits="userSpaceOnUse" x1="183.9" y1="11.7924" x2="183.9" y2="155.428">
				<stop  offset="0" style="stop-color:#09005D"/>
				<stop  offset="1" style="stop-color:#1A0F91"/>
			</linearGradient>
			<path class="st4" d="M1.8,79.2v161.5c0,13.3,10.6,24.2,23.9,24.5c59,1.5,265.3,5.2,321.5,4.4c9.7-0.1,17.5-7.9,17.7-17.5
				c1.1-37.5,2.8-127.7-3.7-169.6c-1.4-8.8-8.8-15.4-17.7-15.7c-49.4-1.6-268.1-6.6-324.3-5.3C9.6,61.6,1.8,69.5,1.8,79.2z"/>
			<path class="st5" d="M12,78.4v153.4c0,7.8,6.2,14.1,14,14.2l313.2,3.9c7.7,0.1,14-6.1,14-13.8L353.6,84c0-5.5-4.4-10-9.9-10.1
				L23.2,67.4C17,67.3,12,72.2,12,78.4z"/>
			<path class="st6" d="M355.5,256.2C355.5,256.2,355.5,256.2,355.5,256.2l-343.5-5.9c-0.2,0-0.4-0.2-0.4-0.4c0-0.2,0.2-0.4,0.4-0.4
				l343.5,5.9c0.2,0,0.4,0.2,0.4,0.4C355.9,256,355.7,256.2,355.5,256.2z"/>
			<path class="st6" d="M187.1,263.3c-2.2,0-4-1.8-4-4c0-2.2,1.8-4,4-4s4,1.8,4,4C191.1,261.5,189.3,263.3,187.1,263.3z
				 M187.1,256.2c-1.7,0-3.1,1.4-3.1,3.1c0,1.7,1.4,3.1,3.1,3.1s3.1-1.4,3.1-3.1C190.2,257.6,188.8,256.2,187.1,256.2z"/>
		</g>
		<g>
			<path class="st7" d="M240.7,333.7c40.1-19.9,71.1-51.2,74.5-116.8C315.2,216.9,210.8,251.8,240.7,333.7z"/>
			<path class="st2" d="M247.2,318.9c0,0-0.1,0-0.1,0c-0.2-0.1-0.4-0.3-0.3-0.6c9.6-27.3,23.8-48.3,34.1-61.2
				c11.1-13.9,20.1-21.5,20.2-21.6c0.2-0.2,0.5-0.1,0.6,0.1c0.2,0.2,0.1,0.5-0.1,0.6c-0.4,0.3-35.7,30.4-54,82.4
				C247.5,318.8,247.4,318.9,247.2,318.9z"/>
		</g>
		<g>
			<linearGradient id="SVGID_4_" gradientUnits="userSpaceOnUse" x1="223.9132" y1="492.4118" x2="201.8832" y2="384.9053">
				<stop  offset="0" style="stop-color:#09005D"/>
				<stop  offset="1" style="stop-color:#1A0F91"/>
			</linearGradient>
			<path class="st8" d="M258.1,337.9H124.6c-3.6,0-6.4-2.6-5.6-5.4l1.7-6.8c0.5-2,2.8-3.5,5.4-3.6l128.7-4c2.8-0.1,5.2,1.4,5.9,3.5
				l3.1,10.8C264.5,335.2,261.8,337.9,258.1,337.9z"/>
			<path class="st9" d="M196.4,324c-0.2,0-0.4-0.2-0.4-0.4c0-0.2,0.2-0.4,0.4-0.4l5.5-0.1c0,0,0,0,0,0c0.2,0,0.4,0.2,0.4,0.4
				c0,0.2-0.2,0.4-0.4,0.4L196.4,324C196.4,324,196.4,324,196.4,324z"/>
			<path class="st9" d="M123.9,334.1C123.8,334.1,123.8,334.1,123.9,334.1c-0.3,0-0.5-0.3-0.4-0.5l0.8-4.9c0.4-2.7,2.7-4.6,5.4-4.6
				l58.5-0.9c0,0,0,0,0,0c0.2,0,0.4,0.2,0.4,0.4c0,0.2-0.2,0.4-0.4,0.4l-58.5,0.9c-2.3,0-4.1,1.7-4.5,3.9l-0.8,4.9
				C124.3,334,124.1,334.1,123.9,334.1z"/>
		</g>
	</g>
	<g>
		<g>
			
				<linearGradient id="SVGID_5_" gradientUnits="userSpaceOnUse" x1="-1950.9229" y1="-516.2847" x2="-2043.5806" y2="-285.3758" gradientTransform="matrix(0.9574 -0.2888 0.2888 0.9574 2315.6143 -106.6259)">
				<stop  offset="0" style="stop-color:#4042E2"/>
				<stop  offset="1" style="stop-color:#4F52FF"/>
			</linearGradient>
			<path class="st10" d="M291.2,13c2,0.1,4,0.3,6,0.5c0.3,0,0.5,0,0.8-0.1c0.7-0.2,1.2-0.8,1.3-1.5c0.1-1-0.6-2-1.6-2.1
				c-2.1-0.3-4.2-0.5-6.3-0.6c-1,0-1.9,0.7-1.9,1.8C289.4,12.1,290.2,12.9,291.2,13z"/>
			
				<linearGradient id="SVGID_6_" gradientUnits="userSpaceOnUse" x1="-2003.3239" y1="-537.3116" x2="-2095.9792" y2="-306.4086" gradientTransform="matrix(0.9574 -0.2888 0.2888 0.9574 2315.6143 -106.6259)">
				<stop  offset="0" style="stop-color:#4042E2"/>
				<stop  offset="1" style="stop-color:#4F52FF"/>
			</linearGradient>
			<path class="st11" d="M239.2,29.8c-0.7-0.7-1.9-0.8-2.6-0.1c-1.5,1.5-3,3-4.4,4.6c-0.7,0.8-0.6,1.9,0.2,2.6
				c0.5,0.4,1.2,0.6,1.8,0.4c0.3-0.1,0.6-0.3,0.9-0.6c1.3-1.5,2.7-3,4.2-4.3C239.9,31.7,239.9,30.6,239.2,29.8z"/>
			
				<linearGradient id="SVGID_7_" gradientUnits="userSpaceOnUse" x1="-2018.1105" y1="-543.2463" x2="-2110.7668" y2="-312.341" gradientTransform="matrix(0.9574 -0.2888 0.2888 0.9574 2315.6143 -106.6259)">
				<stop  offset="0" style="stop-color:#4042E2"/>
				<stop  offset="1" style="stop-color:#4F52FF"/>
			</linearGradient>
			<path class="st12" d="M216.4,71.8c-1-0.1-2,0.6-2.1,1.6c-0.3,2.1-0.5,4.2-0.6,6.3c-0.1,1,0.7,1.9,1.8,1.9c0.2,0,0.4,0,0.6-0.1
				c0.7-0.2,1.3-0.9,1.3-1.7c0.1-2,0.3-4,0.6-6C218.2,72.8,217.4,71.9,216.4,71.8z"/>
			
				<linearGradient id="SVGID_8_" gradientUnits="userSpaceOnUse" x1="-2011.334" y1="-540.5262" x2="-2103.9897" y2="-309.622" gradientTransform="matrix(0.9574 -0.2888 0.2888 0.9574 2315.6143 -106.6259)">
				<stop  offset="0" style="stop-color:#4042E2"/>
				<stop  offset="1" style="stop-color:#4F52FF"/>
			</linearGradient>
			<path class="st13" d="M228.5,42c-0.9-0.6-2-0.3-2.6,0.5c-1.2,1.8-2.3,3.6-3.3,5.4c-0.5,0.9-0.2,2,0.7,2.5c0.5,0.2,1,0.3,1.4,0.1
				c0.5-0.1,0.9-0.4,1.1-0.9c1-1.8,2-3.5,3.1-5.2C229.6,43.7,229.4,42.5,228.5,42z"/>
			
				<linearGradient id="SVGID_9_" gradientUnits="userSpaceOnUse" x1="-1965.8253" y1="-522.2631" x2="-2058.4795" y2="-291.3629" gradientTransform="matrix(0.9574 -0.2888 0.2888 0.9574 2315.6143 -106.6259)">
				<stop  offset="0" style="stop-color:#4042E2"/>
				<stop  offset="1" style="stop-color:#4F52FF"/>
			</linearGradient>
			<path class="st14" d="M275.5,14c2-0.4,4-0.6,6-0.8c0.1,0,0.2,0,0.4-0.1c0.8-0.2,1.4-1.1,1.3-1.9c-0.1-1-1-1.8-2-1.7
				c-2.1,0.2-4.2,0.5-6.3,0.9c-1,0.2-1.7,1.1-1.5,2.2C273.5,13.5,274.5,14.2,275.5,14z"/>
			
				<linearGradient id="SVGID_10_" gradientUnits="userSpaceOnUse" x1="-2016.3434" y1="-542.5371" x2="-2108.9995" y2="-311.6323" gradientTransform="matrix(0.9574 -0.2888 0.2888 0.9574 2315.6143 -106.6259)">
				<stop  offset="0" style="stop-color:#4042E2"/>
				<stop  offset="1" style="stop-color:#4F52FF"/>
			</linearGradient>
			<path class="st15" d="M220.8,56.2c-1-0.4-2,0.1-2.4,1.1c-0.7,2-1.4,4-2,6c-0.3,1,0.3,2,1.3,2.3c0.4,0.1,0.7,0.1,1,0
				c0.6-0.2,1.1-0.6,1.3-1.3c0.5-1.9,1.2-3.8,1.9-5.7C222.2,57.6,221.8,56.5,220.8,56.2z"/>
			
				<linearGradient id="SVGID_11_" gradientUnits="userSpaceOnUse" x1="-2016.4518" y1="-542.5813" x2="-2109.1082" y2="-311.6755" gradientTransform="matrix(0.9574 -0.2888 0.2888 0.9574 2315.6143 -106.6259)">
				<stop  offset="0" style="stop-color:#4042E2"/>
				<stop  offset="1" style="stop-color:#4F52FF"/>
			</linearGradient>
			<path class="st16" d="M215.7,87.9c-1,0.1-1.8,1-1.7,2c0.2,2.1,0.5,4.2,0.8,6.3c0.2,1,1.1,1.7,2.2,1.5c0.1,0,0.1,0,0.2-0.1
				c0.9-0.3,1.5-1.2,1.3-2.1c-0.3-2-0.6-4-0.8-6C217.6,88.6,216.7,87.8,215.7,87.9z"/>
			
				<linearGradient id="SVGID_12_" gradientUnits="userSpaceOnUse" x1="-1992.7061" y1="-533.0505" x2="-2085.3611" y2="-302.148" gradientTransform="matrix(0.9574 -0.2888 0.2888 0.9574 2315.6143 -106.6259)">
				<stop  offset="0" style="stop-color:#4042E2"/>
				<stop  offset="1" style="stop-color:#4F52FF"/>
			</linearGradient>
			<path class="st17" d="M246.1,26.5c0.2-0.1,0.4-0.1,0.5-0.3c1.6-1.2,3.3-2.3,5-3.3c0.9-0.5,1.2-1.7,0.6-2.5
				c-0.5-0.9-1.7-1.2-2.5-0.6c-1.8,1.1-3.6,2.2-5.3,3.5c-0.8,0.6-1,1.8-0.4,2.6C244.5,26.4,245.3,26.7,246.1,26.5z"/>
			
				<linearGradient id="SVGID_13_" gradientUnits="userSpaceOnUse" x1="-1979.99" y1="-527.9474" x2="-2072.6445" y2="-297.0461" gradientTransform="matrix(0.9574 -0.2888 0.2888 0.9574 2315.6143 -106.6259)">
				<stop  offset="0" style="stop-color:#4042E2"/>
				<stop  offset="1" style="stop-color:#4F52FF"/>
			</linearGradient>
			<path class="st18" d="M260.2,18.5c0.1,0,0.1,0,0.2-0.1c1.8-0.8,3.7-1.5,5.6-2.1c1-0.3,1.5-1.4,1.2-2.3c-0.3-1-1.3-1.5-2.3-1.2
				c0,0,0,0,0,0c-2,0.6-4,1.4-5.9,2.2c-0.9,0.4-1.4,1.5-1,2.4C258.3,18.4,259.3,18.8,260.2,18.5z"/>
			
				<linearGradient id="SVGID_14_" gradientUnits="userSpaceOnUse" x1="-2011.5699" y1="-540.6226" x2="-2104.2268" y2="-309.716" gradientTransform="matrix(0.9574 -0.2888 0.2888 0.9574 2315.6143 -106.6259)">
				<stop  offset="0" style="stop-color:#4042E2"/>
				<stop  offset="1" style="stop-color:#4F52FF"/>
			</linearGradient>
			<path class="st19" d="M220.8,105c-0.3-1-1.3-1.5-2.3-1.2c0,0,0,0,0,0c-1,0.3-1.5,1.4-1.2,2.4c0.6,2,1.4,4.1,2.2,6
				c0.4,0.9,1.3,1.3,2.2,1c0.1,0,0.1-0.1,0.2-0.1c0.9-0.4,1.4-1.5,1-2.4C222.1,108.8,221.4,106.9,220.8,105z"/>
			
				<linearGradient id="SVGID_15_" gradientUnits="userSpaceOnUse" x1="-1937.4218" y1="-510.8665" x2="-2030.0792" y2="-279.9582" gradientTransform="matrix(0.9574 -0.2888 0.2888 0.9574 2315.6143 -106.6259)">
				<stop  offset="0" style="stop-color:#4042E2"/>
				<stop  offset="1" style="stop-color:#4F52FF"/>
			</linearGradient>
			<path class="st20" d="M311.9,15.2c0.3-1-0.2-2-1.2-2.3c-1-0.3-1.9-0.6-2.9-0.9c-1-0.3-2,0.3-2.3,1.3c-0.3,1,0.3,2,1.3,2.3
				c0.9,0.3,1.9,0.5,2.8,0.8c0.4,0.1,0.8,0.1,1.1,0C311.2,16.2,311.7,15.8,311.9,15.2z"/>
		</g>
		
			<linearGradient id="SVGID_16_" gradientUnits="userSpaceOnUse" x1="-1954.4863" y1="-517.7199" x2="-2047.1453" y2="-286.8081" gradientTransform="matrix(0.9574 -0.2888 0.2888 0.9574 2315.6143 -106.6259)">
			<stop  offset="0" style="stop-color:#4042E2"/>
			<stop  offset="1" style="stop-color:#4F52FF"/>
		</linearGradient>
		<path class="st21" d="M280.9,153.4c-2-0.2-3.9-0.5-5.9-0.8c-1-0.2-2,0.5-2.2,1.5c-0.2,1,0.5,2,1.5,2.2c2,0.4,4.1,0.7,6.2,0.9
			c0.2,0,0.5,0,0.7-0.1c0.7-0.2,1.2-0.8,1.3-1.6C282.7,154.4,282,153.5,280.9,153.4z"/>
		<g>
			
				<linearGradient id="SVGID_17_" gradientUnits="userSpaceOnUse" x1="-1889.1451" y1="-488.6072" x2="-1981.8018" y2="-257.701" gradientTransform="matrix(0.9574 -0.2888 0.2888 0.9574 2315.6143 -106.6259)">
				<stop  offset="0" style="stop-color:#4042E2"/>
				<stop  offset="1" style="stop-color:#4F52FF"/>
			</linearGradient>
			<path class="st22" d="M357.5,55.8c0.4,0.8,1.3,1.2,2.2,1c0.1,0,0.2-0.1,0.3-0.1c0.9-0.4,1.3-1.6,0.9-2.5
				c-0.4-0.9-0.9-1.8-1.4-2.7c-0.5-0.9-1.6-1.2-2.5-0.8c-0.9,0.5-1.2,1.6-0.8,2.5C356.7,54.1,357.1,54.9,357.5,55.8z"/>
			
				<linearGradient id="SVGID_18_" gradientUnits="userSpaceOnUse" x1="-1879.5598" y1="-484.7608" x2="-1972.2163" y2="-253.855" gradientTransform="matrix(0.9574 -0.2888 0.2888 0.9574 2315.6143 -106.6259)">
				<stop  offset="0" style="stop-color:#4042E2"/>
				<stop  offset="1" style="stop-color:#4F52FF"/>
			</linearGradient>
			<path class="st23" d="M365.9,77.8c-1,0.1-1.8,1-1.7,2c0.2,2,0.3,3.9,0.3,5.9c0,1,0.9,1.8,1.9,1.8c0.2,0,0.4,0,0.5-0.1
				c0.8-0.2,1.3-1,1.3-1.8c0-2.1-0.1-4.2-0.3-6.2C367.9,78.5,367,77.7,365.9,77.8z"/>
			
				<linearGradient id="SVGID_19_" gradientUnits="userSpaceOnUse" x1="-1879.0826" y1="-484.5688" x2="-1971.7386" y2="-253.6641" gradientTransform="matrix(0.9574 -0.2888 0.2888 0.9574 2315.6143 -106.6259)">
				<stop  offset="0" style="stop-color:#4042E2"/>
				<stop  offset="1" style="stop-color:#4F52FF"/>
			</linearGradient>
			<path class="st24" d="M366.1,93.8c-1-0.1-1.9,0.6-2.1,1.6c-0.2,1.9-0.6,3.9-1,5.8c-0.2,1,0.4,2,1.4,2.2c0.3,0.1,0.6,0,0.9,0
				c0.6-0.2,1.1-0.7,1.3-1.4c0.4-2,0.8-4.1,1-6.1C367.9,94.8,367.2,93.9,366.1,93.8z"/>
			
				<linearGradient id="SVGID_20_" gradientUnits="userSpaceOnUse" x1="-1887.7356" y1="-488.0402" x2="-1980.3912" y2="-257.1366" gradientTransform="matrix(0.9574 -0.2888 0.2888 0.9574 2315.6143 -106.6259)">
				<stop  offset="0" style="stop-color:#4042E2"/>
				<stop  offset="1" style="stop-color:#4F52FF"/>
			</linearGradient>
			<path class="st25" d="M353.6,124.4c-1.1,1.7-2.2,3.3-3.4,4.9c-0.6,0.8-0.5,2,0.4,2.6c0.5,0.4,1.1,0.5,1.7,0.3
				c0.4-0.1,0.7-0.3,0.9-0.7c1.3-1.6,2.4-3.4,3.6-5.1c0.5-0.9,0.3-2-0.6-2.6C355.3,123.2,354.2,123.5,353.6,124.4z"/>
			
				<linearGradient id="SVGID_21_" gradientUnits="userSpaceOnUse" x1="-1907.4875" y1="-495.9649" x2="-2000.1426" y2="-265.0627" gradientTransform="matrix(0.9574 -0.2888 0.2888 0.9574 2315.6143 -106.6259)">
				<stop  offset="0" style="stop-color:#4042E2"/>
				<stop  offset="1" style="stop-color:#4F52FF"/>
			</linearGradient>
			<path class="st26" d="M331.8,146.1c-1.7,1.1-3.4,2-5.1,2.9c-0.9,0.5-1.3,1.6-0.8,2.5c0.4,0.8,1.3,1.2,2.2,0.9
				c0.1,0,0.2-0.1,0.3-0.1c1.8-1,3.6-2,5.4-3.1c0.9-0.5,1.1-1.7,0.6-2.6C333.8,145.8,332.7,145.6,331.8,146.1z"/>
			
				<linearGradient id="SVGID_22_" gradientUnits="userSpaceOnUse" x1="-1896.4136" y1="-491.5222" x2="-1989.0687" y2="-260.6194" gradientTransform="matrix(0.9574 -0.2888 0.2888 0.9574 2315.6143 -106.6259)">
				<stop  offset="0" style="stop-color:#4042E2"/>
				<stop  offset="1" style="stop-color:#4F52FF"/>
			</linearGradient>
			<path class="st27" d="M343.9,136.5c-1.4,1.4-2.9,2.7-4.4,4c-0.8,0.7-0.9,1.8-0.2,2.6c0.5,0.6,1.3,0.8,2,0.6
				c0.2-0.1,0.5-0.2,0.7-0.4c1.6-1.3,3.1-2.7,4.6-4.2c0.7-0.7,0.7-1.9,0-2.6C345.8,135.7,344.6,135.7,343.9,136.5z"/>
			
				<linearGradient id="SVGID_23_" gradientUnits="userSpaceOnUse" x1="-1881.861" y1="-485.6833" x2="-1974.5171" y2="-254.7784" gradientTransform="matrix(0.9574 -0.2888 0.2888 0.9574 2315.6143 -106.6259)">
				<stop  offset="0" style="stop-color:#4042E2"/>
				<stop  offset="1" style="stop-color:#4F52FF"/>
			</linearGradient>
			<path class="st28" d="M362.8,109.3c-1-0.3-2,0.2-2.4,1.1c-0.7,1.8-1.4,3.7-2.2,5.5c-0.4,0.9,0,2,0.9,2.5c0.4,0.2,0.9,0.2,1.3,0.1
				c0.5-0.1,0.9-0.5,1.2-1c0.9-1.9,1.7-3.8,2.4-5.8C364.3,110.7,363.8,109.7,362.8,109.3z"/>
			
				<linearGradient id="SVGID_24_" gradientUnits="userSpaceOnUse" x1="-1934.6198" y1="-506.8506" x2="-2027.2737" y2="-275.951" gradientTransform="matrix(0.9574 -0.2888 0.2888 0.9574 2315.6143 -106.6259)">
				<stop  offset="0" style="stop-color:#4042E2"/>
				<stop  offset="1" style="stop-color:#4F52FF"/>
			</linearGradient>
			<path class="st29" d="M302.8,156.5c-2,0.2-3.9,0.4-5.9,0.5c-1,0-1.8,0.9-1.8,1.9c0,1,0.9,1.8,1.9,1.8c2.1-0.1,4.2-0.3,6.2-0.5
				c0.1,0,0.2,0,0.3-0.1c0.9-0.3,1.4-1.1,1.3-2C304.7,157.1,303.8,156.4,302.8,156.5z"/>
			
				<linearGradient id="SVGID_25_" gradientUnits="userSpaceOnUse" x1="-1920.4379" y1="-501.1607" x2="-2013.0924" y2="-270.2597" gradientTransform="matrix(0.9574 -0.2888 0.2888 0.9574 2315.6143 -106.6259)">
				<stop  offset="0" style="stop-color:#4042E2"/>
				<stop  offset="1" style="stop-color:#4F52FF"/>
			</linearGradient>
			<path class="st30" d="M317.9,152.9c-1.8,0.7-3.7,1.2-5.7,1.7c-1,0.3-1.6,1.3-1.3,2.3c0.3,1,1.3,1.6,2.3,1.3
				c0.8-0.2,1.7-0.5,2.5-0.7c1.2-0.4,2.3-0.7,3.5-1.1c1-0.3,1.5-1.4,1.1-2.4C319.9,153.1,318.8,152.6,317.9,152.9z"/>
			
				<linearGradient id="SVGID_26_" gradientUnits="userSpaceOnUse" x1="-1883.2532" y1="-486.2431" x2="-1975.9099" y2="-255.3364" gradientTransform="matrix(0.9574 -0.2888 0.2888 0.9574 2315.6143 -106.6259)">
				<stop  offset="0" style="stop-color:#4042E2"/>
				<stop  offset="1" style="stop-color:#4F52FF"/>
			</linearGradient>
			<path class="st31" d="M364.6,63.5c-0.3-1-1.4-1.5-2.3-1.2c-1,0.3-1.5,1.4-1.2,2.3c0.2,0.5,0.3,1,0.5,1.5c0.4,1.4,0.8,2.8,1.1,4.2
				c0.2,1,1.2,1.6,2.2,1.4c0,0,0.1,0,0.1,0c0.9-0.3,1.5-1.2,1.3-2.2c-0.3-1.5-0.7-3-1.2-4.4C365,64.6,364.8,64.1,364.6,63.5z"/>
		</g>
		
			<linearGradient id="SVGID_27_" gradientUnits="userSpaceOnUse" x1="-1967.7103" y1="-523.0233" x2="-2060.3677" y2="-292.1151" gradientTransform="matrix(0.9574 -0.2888 0.2888 0.9574 2315.6143 -106.6259)">
			<stop  offset="0" style="stop-color:#4042E2"/>
			<stop  offset="1" style="stop-color:#4F52FF"/>
		</linearGradient>
		<path class="st32" d="M265.7,150.2c-0.9-0.3-1.8-0.6-2.7-1c-1-0.4-2,0.1-2.4,1.1c-0.4,1,0.1,2,1.1,2.4c0.9,0.4,1.9,0.7,2.9,1
			c0.4,0.1,0.8,0.1,1.1,0c0.6-0.2,1-0.6,1.2-1.2C267.2,151.6,266.7,150.5,265.7,150.2z"/>
		<g>
			
				<linearGradient id="SVGID_28_" gradientUnits="userSpaceOnUse" x1="-393.6127" y1="75.4085" x2="-379.0722" y2="-48.4064" gradientTransform="matrix(0.981 0.1938 -0.1938 0.981 586.6586 482.0831)">
				<stop  offset="0" style="stop-color:#09005D"/>
				<stop  offset="1" style="stop-color:#1A0F91"/>
			</linearGradient>
			<path class="st33" d="M348.6,67.9l-10.4-1.5c-2-4.5-4.7-8.5-7.8-12l-13.5,2.6l-10.3,11.2l9.1,19.7l-23-0.8l-13.5,10l1.8,17.7
				l-14.2-2.7l-4.8,4.8l-2.7,10.2c-0.1,0.4,0,0.7,0.4,0.9l10.5,7.1c0.3,0.2,0.7,0.2,1,0l8.4-6.4c4.6,1.8,9.5,2.8,14.6,3l5.3,9.1
				c0.2,0.3,0.6,0.5,0.9,0.4l12.4-2.4c0.4-0.1,0.6-0.4,0.7-0.7l1.5-10.4c4.6-2.1,8.8-4.9,12.4-8.2l10.2,2.7c0.4,0.1,0.7,0,0.9-0.4
				l7.1-10.5c0.2-0.3,0.2-0.7,0-1l-6.4-8.4c1.8-4.6,2.8-9.5,3-14.6l9.1-5.3c0.3-0.2,0.5-0.6,0.4-0.9l-2.4-12.4
				C349.3,68.3,349,68,348.6,67.9z"/>
			<linearGradient id="SVGID_29_" gradientUnits="userSpaceOnUse" x1="285.414" y1="92.8957" x2="308.5004" y2="92.8957">
				<stop  offset="0" style="stop-color:#4042E2"/>
				<stop  offset="1" style="stop-color:#4F52FF"/>
			</linearGradient>
			<path class="st34" d="M300.1,94.3c-4.5,2.1-9.7,0.5-12.3-3.5l-2.4,1.8c3.1,4.6,8.9,6.7,14.2,5.1c0.6-0.2,1.2-0.4,1.7-0.7
				c3.9-1.8,6.4-5.3,7.1-9.3l-3-0.1C304.8,90.4,303,93,300.1,94.3z"/>
			<linearGradient id="SVGID_30_" gradientUnits="userSpaceOnUse" x1="294.7211" y1="88.144" x2="327.4249" y2="88.144">
				<stop  offset="0" style="stop-color:#4042E2"/>
				<stop  offset="1" style="stop-color:#4F52FF"/>
			</linearGradient>
			<path class="st35" d="M326.1,76.1c-2-6.6-6.1-12.3-11.7-16.3l-1,1.1c5.5,3.9,9.4,9.3,11.3,15.7c0.3,1,0.5,2,0.7,3
				c1.1,5.8,0.5,11.5-1.5,16.6c-3.6,9.2-11.7,16.4-22.1,18.4c-2.1,0.4-4.2,0.6-6.3,0.5c-0.4,0-0.7,0.3-0.8,0.7c0,0.1,0,0.2,0,0.2
				c0.1,0.3,0.4,0.5,0.7,0.5c0.1,0,0.3-0.1,0.4-0.1c0.1,0,0.1-0.1,0.2-0.1c0,0,0,0,0.1,0c1.7,0,3.3-0.1,5-0.3c0.3-0.1,0.7-0.1,1-0.1
				c1.1-0.2,2.1-0.4,3.1-0.8c6.9-2.1,12.8-6.4,16.9-12.4c4.7-6.9,6.4-15.3,4.8-23.5C326.6,78.2,326.4,77.1,326.1,76.1z"/>
		</g>
		<g>
			
				<linearGradient id="SVGID_31_" gradientUnits="userSpaceOnUse" x1="-437.9816" y1="70.1992" x2="-423.4409" y2="-53.6164" gradientTransform="matrix(0.981 0.1938 -0.1938 0.981 586.6586 482.0831)">
				<stop  offset="0" style="stop-color:#09005D"/>
				<stop  offset="1" style="stop-color:#1A0F91"/>
			</linearGradient>
			<path class="st36" d="M270.2,106.8L268.5,90l13.5-10l22.4,0.7c0.3,0,0.5-0.3,0.3-0.5L295.8,61l10.3-11.2l13.5-2.6
				c-0.1-0.1-0.3-0.3-0.4-0.4l2.7-10.2c0.1-0.4,0-0.7-0.4-0.9l-10.5-7.1c-0.3-0.2-0.7-0.2-1,0l-8.4,6.4c-4.6-1.8-9.5-2.8-14.6-3
				l-5.3-9.1c-0.2-0.3-0.6-0.5-0.9-0.4l-12.4,2.4c-0.4,0.1-0.6,0.4-0.7,0.7l-1.5,10.4c-4.6,2.1-8.8,4.9-12.4,8.2l-10.2-2.7
				c-0.4-0.1-0.7,0-0.9,0.4l-7.1,10.5c-0.2,0.3-0.2,0.7,0,1l6.4,8.4c-1.8,4.6-2.8,9.5-3,14.6l-9.1,5.3c-0.3,0.2-0.5,0.6-0.4,0.9
				l2.4,12.4c0.1,0.4,0.4,0.6,0.7,0.7l10.4,1.5c2.1,4.6,4.9,8.8,8.2,12.4l0,0l4.8-4.8l13.3,2.6C269.9,107.6,270.2,107.2,270.2,106.8
				z"/>
			<linearGradient id="SVGID_32_" gradientUnits="userSpaceOnUse" x1="272.5539" y1="75.4163" x2="298.0091" y2="75.4163">
				<stop  offset="0" style="stop-color:#4042E2"/>
				<stop  offset="1" style="stop-color:#4F52FF"/>
			</linearGradient>
			<path class="st37" d="M277.1,83.5c-0.2-0.4-0.5-0.7-0.6-1.1c-2.3-4.9-0.2-10.7,4.7-13c0.4-0.2,0.9-0.4,1.4-0.5
				c2-0.6,4.1-0.5,6.1,0.2c2.5,0.9,4.4,2.7,5.5,5c1,2,1.1,4.3,0.7,6.3l3,0.1c0.5-2.5,0.2-5.2-1-7.7c-1.4-3.1-4-5.4-7.2-6.6
				c-3.2-1.2-6.7-1-9.7,0.5c-6.4,3-9.1,10.6-6.1,16.9c0.3,0.6,0.6,1.1,1,1.7L277.1,83.5z"/>
			<linearGradient id="SVGID_33_" gradientUnits="userSpaceOnUse" x1="254.1103" y1="72.9325" x2="303.6365" y2="72.9325">
				<stop  offset="0" style="stop-color:#4042E2"/>
				<stop  offset="1" style="stop-color:#4F52FF"/>
			</linearGradient>
			<path class="st38" d="M302.9,52.1c-6.9-4.7-15.3-6.4-23.5-4.8c-16.9,3.3-28,19.8-24.8,36.7c0.2,1,0.5,2.1,0.8,3.1
				c1.3,4.4,3.6,8.4,6.7,11.8c0.3,0.3,0.7,0.3,1,0.1c0.2-0.2,0.3-0.5,0.2-0.8c0-0.1-0.1-0.2-0.2-0.3c-2.9-3.2-5.1-7.1-6.3-11.3
				c-0.3-1-0.5-1.9-0.7-2.9c-3.1-16.1,7.4-31.8,23.6-35c7.8-1.5,15.8,0.1,22.4,4.5c0.2,0.1,0.4,0.3,0.5,0.4l1-1.1
				C303.4,52.4,303.2,52.2,302.9,52.1z"/>
		</g>
	</g>
	<g>
		<g>
			<circle class="st9" cx="57.7" cy="51.4" r="36.5"/>
			<linearGradient id="SVGID_34_" gradientUnits="userSpaceOnUse" x1="80.4725" y1="-37.3801" x2="47.371" y2="91.4104">
				<stop  offset="0" style="stop-color:#FE7062"/>
				<stop  offset="1" style="stop-color:#FF928E"/>
			</linearGradient>
			<circle class="st39" cx="57.7" cy="51.4" r="35.3"/>
			<path class="st40" d="M86.8,37.1c0.1,0,0.1,0,0.2,0c0.2-0.1,0.3-0.3,0.2-0.5c-5.6-11.2-16.9-18.1-29.4-18.1c-2,0-4,0.2-5.9,0.5
				c-0.2,0-0.3,0.2-0.3,0.4c0,0.2,0.2,0.3,0.4,0.3c1.9-0.3,3.9-0.5,5.8-0.5c12.2,0,23.3,6.8,28.8,17.7C86.5,37,86.6,37.1,86.8,37.1z
				"/>
			<circle class="st9" cx="56.9" cy="52.1" r="29.9"/>
		</g>
		<g>
			<linearGradient id="SVGID_35_" gradientUnits="userSpaceOnUse" x1="174.6523" y1="-98.7201" x2="123.0079" y2="-36.2842">
				<stop  offset="0" style="stop-color:#E1473D"/>
				<stop  offset="1" style="stop-color:#E9605A"/>
			</linearGradient>
			<path class="st41" d="M58.7,57.9l-3.4-0.1c-0.9,0-1.7-0.8-1.8-1.8l-1.2-23.8c0-0.5,0.2-0.9,0.5-1.2c0.3-0.3,0.8-0.4,1.3-0.4
				L60,31c0.5,0,0.9,0.2,1.3,0.6c0.3,0.4,0.5,0.8,0.5,1.3l-1.2,23.4C60.4,57.2,59.7,58,58.7,57.9z"/>
			<linearGradient id="SVGID_36_" gradientUnits="userSpaceOnUse" x1="186.3669" y1="-89.0295" x2="134.7225" y2="-26.5937">
				<stop  offset="0" style="stop-color:#E1473D"/>
				<stop  offset="1" style="stop-color:#E9605A"/>
			</linearGradient>
			<path class="st42" d="M53.5,63.7c0.8-0.8,2-1.2,3.6-1.2c1.6,0,2.8,0.4,3.6,1.2c0.8,0.8,1.2,2,1.2,3.5c0,1.5-0.4,2.6-1.2,3.5
				c-0.8,0.8-2,1.2-3.6,1.2c-1.5,0-2.7-0.4-3.5-1.3c-0.9-0.8-1.3-2-1.3-3.5C52.3,65.7,52.7,64.6,53.5,63.7z"/>
		</g>
	</g>
	<g>
		<g>
			<linearGradient id="SVGID_37_" gradientUnits="userSpaceOnUse" x1="166.9324" y1="37.7531" x2="198.9653" y2="219.0215">
				<stop  offset="0" style="stop-color:#09005D"/>
				<stop  offset="1" style="stop-color:#1A0F91"/>
			</linearGradient>
			<path class="st43" d="M190.9,35.4L96.7,193.8c-2.1,3.5,0.6,7.7,4.9,7.8l186.8,1.5c4.3,0,7.1-4.2,5.1-7.7L200.9,35.5
				C198.8,31.8,193.1,31.8,190.9,35.4z"/>
			<linearGradient id="SVGID_38_" gradientUnits="userSpaceOnUse" x1="251.346" y1="61.6338" x2="85.5869" y2="445.5385">
				<stop  offset="0" style="stop-color:#FE7062"/>
				<stop  offset="1" style="stop-color:#FF928E"/>
			</linearGradient>
			<path class="st44" d="M191.4,44.9l-85.6,143.8c-1.9,3.2,0.6,7,4.5,7.1l169.7,1.4c3.9,0,6.5-3.8,4.6-7L200.5,45
				C198.6,41.6,193.4,41.6,191.4,44.9z"/>
		</g>
		<g>
			<g>
				<linearGradient id="SVGID_39_" gradientUnits="userSpaceOnUse" x1="148.2877" y1="177.8478" x2="232.9391" y2="-27.9887">
					<stop  offset="0" style="stop-color:#09005D"/>
					<stop  offset="1" style="stop-color:#1A0F91"/>
				</linearGradient>
				<path class="st45" d="M176.7,143.5l-4.2,0.1v7.5l-7.2,0.1v-7.5l-15.1,0.2v-5.4l15.5-23.5l6.8,0v22.6l4.2,0V143.5z M165.3,137.7
					v-6.1c0-1,0-2.5,0.1-4.5c0.1-1.9,0.1-3.1,0.2-3.4l-0.2,0c-0.6,1.4-1.3,2.7-2.1,4l-6.5,10.1L165.3,137.7z"/>
				<linearGradient id="SVGID_40_" gradientUnits="userSpaceOnUse" x1="170.1073" y1="186.8214" x2="254.7588" y2="-19.0152">
					<stop  offset="0" style="stop-color:#09005D"/>
					<stop  offset="1" style="stop-color:#1A0F91"/>
				</linearGradient>
				<path class="st46" d="M204.3,132.7c0,6.2-1,10.8-2.9,13.8c-1.9,3-4.9,4.6-9,4.6c-3.9,0.1-6.9-1.4-8.9-4.5c-2-3.1-3-7.7-3-13.7
					c0-6.3,1-11,2.9-14c2-3,5-4.5,9-4.5c3.9,0,6.9,1.6,8.9,4.7C203.3,122.2,204.3,126.7,204.3,132.7z M187.6,132.8
					c0,4.4,0.4,7.5,1.1,9.4c0.7,1.9,1.9,2.8,3.7,2.8c1.7,0,2.9-1,3.6-2.9c0.7-1.9,1.1-5,1.1-9.4c0-4.4-0.4-7.5-1.1-9.4
					c-0.8-1.9-2-2.9-3.6-2.9c-1.7,0-2.9,1-3.6,2.9C188,125.3,187.6,128.5,187.6,132.8z"/>
				<linearGradient id="SVGID_41_" gradientUnits="userSpaceOnUse" x1="196.7943" y1="197.7965" x2="281.4459" y2="-8.0403">
					<stop  offset="0" style="stop-color:#09005D"/>
					<stop  offset="1" style="stop-color:#1A0F91"/>
				</linearGradient>
				<path class="st47" d="M233,142.7l-4,0.1v7.3l-6.8,0.1v-7.3l-14.2,0.2v-5.2l14.6-22.8l6.4,0v22l4,0V142.7z M222.2,137.1v-6
					c0-1,0-2.4,0.1-4.3c0.1-1.9,0.1-3,0.2-3.3l-0.2,0c-0.6,1.3-1.2,2.6-2,3.9l-6.1,9.8L222.2,137.1z"/>
			</g>
			<g>
				<linearGradient id="SVGID_42_" gradientUnits="userSpaceOnUse" x1="152.1253" y1="179.4261" x2="236.7768" y2="-26.4107">
					<stop  offset="0" style="stop-color:#09005D"/>
					<stop  offset="1" style="stop-color:#1A0F91"/>
				</linearGradient>
				<path class="st48" d="M160.4,182.6l-11.1,0.4V163l11.1-0.2v3.4l-7,0.2v4.4l6.5-0.2v3.4l-6.5,0.2v5.1l7-0.2V182.6z"/>
				<linearGradient id="SVGID_43_" gradientUnits="userSpaceOnUse" x1="167.1976" y1="185.6247" x2="251.8493" y2="-20.2124">
					<stop  offset="0" style="stop-color:#09005D"/>
					<stop  offset="1" style="stop-color:#1A0F91"/>
				</linearGradient>
				<path class="st49" d="M169.1,174.7v7.6l-4,0.1v-19.7l5.6-0.1c2.6-0.1,4.5,0.4,5.7,1.3c1.2,0.9,1.8,2.4,1.8,4.4
					c0,1.2-0.3,2.2-0.9,3.1c-0.6,0.9-1.5,1.6-2.6,2.2c2.8,4.3,4.7,7.1,5.6,8.4l-4.4,0.1l-4.5-7.4L169.1,174.7z M169.1,171.3l1.3,0
					c1.3,0,2.2-0.3,2.8-0.7c0.6-0.5,0.9-1.2,0.9-2.1c0-0.9-0.3-1.6-0.9-2c-0.6-0.4-1.6-0.6-2.9-0.5l-1.2,0V171.3z"/>
				<linearGradient id="SVGID_44_" gradientUnits="userSpaceOnUse" x1="182.4783" y1="191.9089" x2="267.13" y2="-13.9283">
					<stop  offset="0" style="stop-color:#09005D"/>
					<stop  offset="1" style="stop-color:#1A0F91"/>
				</linearGradient>
				<path class="st50" d="M187.3,174.2v7.5l-4,0.1v-19.6l5.5-0.1c2.5-0.1,4.4,0.4,5.6,1.3c1.2,0.9,1.8,2.4,1.8,4.3
					c0,1.1-0.3,2.2-0.9,3.1c-0.6,0.9-1.5,1.6-2.6,2.2c2.8,4.3,4.6,7.1,5.5,8.3l-4.4,0.1l-4.4-7.3L187.3,174.2z M187.3,170.8l1.3,0
					c1.3,0,2.2-0.3,2.8-0.7c0.6-0.5,0.9-1.1,0.9-2.1c0-0.9-0.3-1.6-0.9-1.9c-0.6-0.4-1.6-0.5-2.8-0.5l-1.2,0V170.8z"/>
				<linearGradient id="SVGID_45_" gradientUnits="userSpaceOnUse" x1="197.9749" y1="198.282" x2="282.6249" y2="-7.5509">
					<stop  offset="0" style="stop-color:#09005D"/>
					<stop  offset="1" style="stop-color:#1A0F91"/>
				</linearGradient>
				<path class="st51" d="M217.8,171.1c0,3.2-0.7,5.7-2.2,7.4c-1.5,1.8-3.6,2.7-6.4,2.8c-2.8,0.1-5-0.7-6.5-2.4
					c-1.5-1.7-2.3-4.1-2.3-7.4s0.8-5.7,2.3-7.4c1.5-1.7,3.7-2.6,6.5-2.7c2.8-0.1,5,0.7,6.4,2.4C217.1,165.5,217.8,167.9,217.8,171.1
					z M204.4,171.4c0,2.2,0.4,3.8,1.2,4.8c0.8,1.1,1.9,1.6,3.5,1.5c3.1-0.1,4.6-2.3,4.6-6.6c0-4.3-1.5-6.5-4.6-6.4
					c-1.5,0-2.7,0.6-3.5,1.7C204.8,167.6,204.4,169.3,204.4,171.4z"/>
				<linearGradient id="SVGID_46_" gradientUnits="userSpaceOnUse" x1="215.1288" y1="205.3367" x2="299.7806" y2="-0.5008">
					<stop  offset="0" style="stop-color:#09005D"/>
					<stop  offset="1" style="stop-color:#1A0F91"/>
				</linearGradient>
				<path class="st52" d="M226,173.1v7.3l-3.8,0.1v-19.2l5.3-0.1c2.4-0.1,4.2,0.4,5.4,1.3c1.2,0.9,1.7,2.3,1.7,4.3
					c0,1.1-0.3,2.1-0.9,3c-0.6,0.9-1.4,1.6-2.5,2.1c2.7,4.2,4.4,6.9,5.3,8.2l-4.2,0.1l-4.3-7.2L226,173.1z M226,169.8l1.2,0
					c1.2,0,2.1-0.3,2.7-0.7c0.6-0.4,0.9-1.1,0.9-2c0-0.9-0.3-1.5-0.9-1.9c-0.6-0.4-1.5-0.5-2.7-0.5l-1.2,0V169.8z"/>
			</g>
		</g>
	</g>
	<g>
		
			<linearGradient id="SVGID_47_" gradientUnits="userSpaceOnUse" x1="2508.0693" y1="340.9682" x2="2417.5042" y2="439.4778" gradientTransform="matrix(1 0 0 1 -2400.0403 0)">
			<stop  offset="0" style="stop-color:#09005D"/>
			<stop  offset="1" style="stop-color:#1A0F91"/>
		</linearGradient>
		<path class="st53" d="M79.4,348.3c0,0-0.9,5.3-1.4,10.6c-0.2,2.1,1.4,3.8,3.5,3.9c7,0.3,22,0.9,27.3,0.6c0.8,0,1.3-0.9,1-1.6l0,0
			c-0.3-0.6-0.7-1.1-1.3-1.4L83.8,349L79.4,348.3z"/>
		
			<linearGradient id="SVGID_48_" gradientUnits="userSpaceOnUse" x1="2478.6731" y1="348.2847" x2="2486.7175" y2="348.2847" gradientTransform="matrix(1 0 0 1 -2400.0403 0)">
			<stop  offset="0" style="stop-color:#FEBBBA"/>
			<stop  offset="1" style="stop-color:#FF928E"/>
		</linearGradient>
		<path class="st54" d="M78.6,345.2l0.8,6.4c0,0,4.3,2,7.3-0.3l-1.8-7.1L78.6,345.2z"/>
		
			<linearGradient id="SVGID_49_" gradientUnits="userSpaceOnUse" x1="2002.2913" y1="838.3317" x2="2089.0049" y2="736.6997" gradientTransform="matrix(1 0 0 1 -2400.0403 0)">
			<stop  offset="0" style="stop-color:#020039"/>
			<stop  offset="1" style="stop-color:#090056"/>
		</linearGradient>
		<path class="st55" d="M79.2,225.8c-0.3,1.7-1.7,82.8,6.9,119.1c0.1,0.6-0.2,1.2-0.7,1.4c-1.3,0.5-3.9,1.3-7.1,1.4
			c-1,0-1.8-0.6-2.1-1.5c-2.5-8.4-14.4-50.7-15.9-91c-1.7-45.1,0-1.5,0-1.5l1-27.9L79.2,225.8z"/>
		
			<linearGradient id="SVGID_50_" gradientUnits="userSpaceOnUse" x1="2487.7524" y1="322.2899" x2="2397.1873" y2="420.7996" gradientTransform="matrix(1 0 0 1 -2400.0403 0)">
			<stop  offset="0" style="stop-color:#09005D"/>
			<stop  offset="1" style="stop-color:#1A0F91"/>
		</linearGradient>
		<path class="st56" d="M51,351.1c0,0-1.5,2.7-2.9,9.8c-0.3,1.3,0.6,2.5,1.9,2.6c2.3,0.2,5.9,0.5,8.7,0.5c1.3,0,2.3-1.2,2.2-2.5
			c-0.3-2.6-1.3-6.9-4.3-10.2L51,351.1z"/>
		
			<linearGradient id="SVGID_51_" gradientUnits="userSpaceOnUse" x1="2449.6812" y1="347.8721" x2="2456.6267" y2="347.8721" gradientTransform="matrix(1 0 0 1 -2400.0403 0)">
			<stop  offset="0" style="stop-color:#FEBBBA"/>
			<stop  offset="1" style="stop-color:#FF928E"/>
		</linearGradient>
		<path class="st57" d="M49.6,342.9l1.8,9.6c0,0,1.7,1.3,5.2,0.4l-0.8-10.3L49.6,342.9z"/>
		
			<linearGradient id="SVGID_52_" gradientUnits="userSpaceOnUse" x1="1990.1342" y1="827.9595" x2="2076.8474" y2="726.3278" gradientTransform="matrix(1 0 0 1 -2400.0403 0)">
			<stop  offset="0" style="stop-color:#020039"/>
			<stop  offset="1" style="stop-color:#090056"/>
		</linearGradient>
		<path class="st58" d="M44.9,228.3c-7.1,42.8,1.5,105.8,4.4,118.1c0.2,0.8,0.8,1.3,1.6,1.5c1.3,0.2,3.4,0.4,5.5-0.2
			c0.7-0.2,1.2-0.9,1.3-1.6c0.4-10-0.3-71.1,6.3-95.3c0.3-1.2,1.1-2.3,2.1-3l12.8-9.1l1-14.7L44.9,228.3z"/>
		<g>
			<g>
				<g>
					<g>
						<g>
							<linearGradient id="SVGID_53_" gradientUnits="userSpaceOnUse" x1="107.4604" y1="134.2856" x2="76.1777" y2="222.4057">
								<stop  offset="0" style="stop-color:#4F52FF"/>
								<stop  offset="1" style="stop-color:#4042E2"/>
							</linearGradient>
							<path class="st59" d="M108,167.3c-1.1,7.7-2.2,9.4-3.1,9.5c-2.8,0.1-2.2-17.1-12.5-25.9c-6.5-5.5-15.4-6-22.3-5.3
								c3.3,11.7,6.5,23.3,9.8,35c1.4,3.5,7.6,17.6,21.6,21.8c2.9,0.9,7.1,2.2,11,0.5c7.8-3.3,11.4-17.1,8-34.2
								C118.8,168,116.5,167.3,108,167.3z"/>
							
								<linearGradient id="SVGID_54_" gradientUnits="userSpaceOnUse" x1="-11486.6221" y1="2276.3335" x2="-11576.8418" y2="2391.7615" gradientTransform="matrix(0.3133 -0.9497 0.9497 0.3133 1515.3458 -11514.3857)">
								<stop  offset="0" style="stop-color:#FEBBBA"/>
								<stop  offset="1" style="stop-color:#FF928E"/>
							</linearGradient>
							<path class="st60" d="M105.5,137.4l1.3,7.3c2.1,8.9,2.3,16.3,1.2,22.6c1.8,0.1,3.6,0.2,5.6,0.4c2.4,0.2,4.7,0.5,6.8,0.9
								c-1.1-9.1-7.2-24.1-7.2-24.1C109.6,139.2,109.2,142.6,105.5,137.4z"/>
						</g>
						
							<linearGradient id="SVGID_55_" gradientUnits="userSpaceOnUse" x1="-11474.3398" y1="2285.9331" x2="-11564.5596" y2="2401.3608" gradientTransform="matrix(0.3133 -0.9497 0.9497 0.3133 1515.3458 -11514.3857)">
							<stop  offset="0" style="stop-color:#FEBBBA"/>
							<stop  offset="1" style="stop-color:#FF928E"/>
						</linearGradient>
						<path class="st61" d="M120.3,122c-1.5,0-2.9,0.6-3.8,1.7l-9.2,10.9c0,0-1.7-0.3-1.8-3.5c-0.2-3.2-3.6-3.6-3.6-3.6
							s0.5,4.5,1.4,11.1c0.5,3.8,2.8,6.5,4.6,8.2l5.3-1.8c4.9-7,7.9-14.7,9.6-22.9L120.3,122z"/>
					</g>
					<linearGradient id="SVGID_56_" gradientUnits="userSpaceOnUse" x1="80.6931" y1="124.7832" x2="49.4103" y2="212.9037">
						<stop  offset="0" style="stop-color:#4F52FF"/>
						<stop  offset="1" style="stop-color:#4042E2"/>
					</linearGradient>
					<path class="st62" d="M33.6,151.7c0.6-0.2,4.8-4.5,5.4-4.6c10.3-2,36.1-8.9,53.3,3.8c0,0.4,0.1,0.7,0.1,0.9
						c0.2,0.2,0.4,0.6,0.7,1.2c1.6,3.2,3.6,6.2,5.8,9.1c-0.5,0.5-0.9,1.1-1.2,1.7c-4.1,8.9-19.8,44.3-17.1,66
						c0.1,1.1-0.6,2.2-1.7,2.3c-6.1,0.8-24.2,2.9-33.6-1c-0.5-0.2-0.9-0.8-0.9-1.4c0.1-4.3-0.1-23.2-7-46c-0.3-0.8-0.5-1.7-0.6-2.6
						c-0.1,0.2-0.2,0.3-0.2,0.5L33.6,151.7z"/>
					<linearGradient id="SVGID_57_" gradientUnits="userSpaceOnUse" x1="44.2223" y1="111.8361" x2="12.9395" y2="199.9563">
						<stop  offset="0" style="stop-color:#4F52FF"/>
						<stop  offset="1" style="stop-color:#4042E2"/>
					</linearGradient>
					<path class="st63" d="M49.4,145.1c-19.2,1.4-23.3,12.4-36.6,5.7l2.4,20.6c4.9,5.4,12.4,9.2,21.8,10.5L49.4,145.1z"/>
				</g>
				<g>
					
						<linearGradient id="SVGID_58_" gradientUnits="userSpaceOnUse" x1="-6064.2114" y1="725.6768" x2="-6079.7285" y2="792.7335" gradientTransform="matrix(0.9659 0.2591 -0.2591 0.9659 6120.1284 994.6579)">
						<stop  offset="0" style="stop-color:#FEBBBA"/>
						<stop  offset="1" style="stop-color:#FF928E"/>
					</linearGradient>
					<path class="st64" d="M62.5,126.5c-3.3,6.6-4.7,13.3-5.1,19.5c0.7,0.3,10.2,6.8,16.5,0.5c-1.4-4.4-1.1-10.9-0.8-17.7
						L62.5,126.5z"/>
					<g>
						
							<linearGradient id="SVGID_59_" gradientUnits="userSpaceOnUse" x1="-3792.5054" y1="1049.333" x2="-3849.2065" y2="1076.8888" gradientTransform="matrix(-0.9451 0.3269 0.3269 0.9451 -3896.5374 363.7946)">
							<stop  offset="0" style="stop-color:#FEBBBA"/>
							<stop  offset="1" style="stop-color:#FF928E"/>
						</linearGradient>
						<path class="st65" d="M79.7,109.2c0.2,0.3,4.9,22.6,4.9,22.6l-12.8,2.4l-7.6-20.5C64.2,113.7,76.7,104.3,79.7,109.2z"/>
						
							<linearGradient id="SVGID_60_" gradientUnits="userSpaceOnUse" x1="-6404.2617" y1="-5111.103" x2="-6373.0161" y2="-5111.103" gradientTransform="matrix(0.8506 -0.5257 0.5257 0.8506 8197.1592 1110.3628)">
							<stop  offset="0" style="stop-color:#09005D"/>
							<stop  offset="1" style="stop-color:#1A0F91"/>
						</linearGradient>
						<path class="st66" d="M69.1,115.6c-0.3,0.5-0.4,1.1-0.3,1.6l3.1,10.9c0,0.2,0.1,0.3,0.2,0.5c0.5,0.8,2.3,3.2,4.8,1.2
							c2.1-1.7,4-3.2,5.8-3.6c1-0.2,2,0.4,2.2,1.5c0.4,2.1,1.2,6.3,1.4,10.2c0,1-0.7,1.8-1.6,1.9c-2.5,0.3-7.5,0.8-11.7,0.3
							c-0.7-0.1-1.3-0.5-1.5-1.2c-1.1-2.8-4.2-10.8-5.4-12.9c-1.1-2-4.1-2.1-5.5-2.1c-0.5,0-1-0.2-1.4-0.6c-1.1-1.1-2.8-3.7,0.1-6.5
							c0.7-0.7,0.8-1.9,0.1-2.6c-1.2-1.3-2.3-3.6,0-6.1c2.3-2.5,5.1-2.1,6.9-1.4c0.8,0.3,1.7,0.1,2.3-0.6c0.2-0.3,0.6-0.5,1.1-0.5
							c1,0.1,1.9-0.7,2-1.7c0.1-1.8,0.9-3.9,4-4.6c5.6-1.4,8.7,4.1,8.8,8.1c0.1,4-6.1,5.1-9.6,4.6C72.1,111.9,70,114.3,69.1,115.6z"
							/>
						
							<linearGradient id="SVGID_61_" gradientUnits="userSpaceOnUse" x1="-3789.4446" y1="1055.6302" x2="-3846.146" y2="1083.186" gradientTransform="matrix(-0.9451 0.3269 0.3269 0.9451 -3896.5374 363.7946)">
							<stop  offset="0" style="stop-color:#FEBBBA"/>
							<stop  offset="1" style="stop-color:#FF928E"/>
						</linearGradient>
						<path class="st67" d="M67.9,130.1c0,0-1.2-7.1-4-7.6c-2.8-0.5-5.8,1.7-3.2,5.7C64,133.3,67.9,130.1,67.9,130.1z"/>
					</g>
				</g>
				<g>
					
						<linearGradient id="SVGID_62_" gradientUnits="userSpaceOnUse" x1="-3991.5972" y1="1120.2227" x2="-3941.4534" y2="1154.9921" gradientTransform="matrix(-0.9999 -1.050000e-02 -1.050000e-02 0.9999 -3912.7053 -1052.9928)">
						<stop  offset="0" style="stop-color:#FEBBBA"/>
						<stop  offset="1" style="stop-color:#FF928E"/>
					</linearGradient>
					<path class="st68" d="M63.2,104.7c0.5,0,1,0,1.6,0.2c1.4,0.3,3.2,1,2.7,2.3c-0.7,2-4.4,0.1-6.3,3.3c-1.7,2.8-0.3,5.8-0.8,8.8
						c-0.3,1.5-1.2,3.6-2.5,4.5c-0.6,0.4-5.2,1.1-5.4,0.3c0,0-1.3-4.1-1.3-4.1c-1.1-3.7,3.3-9.9,5.5-12.4
						C58.5,105.5,60.9,104.8,63.2,104.7z"/>
					<g>
						
							<linearGradient id="SVGID_63_" gradientUnits="userSpaceOnUse" x1="-3990.5767" y1="1119.2157" x2="-3938.4131" y2="1155.3857" gradientTransform="matrix(-0.9999 -1.050000e-02 -1.050000e-02 0.9999 -3912.7053 -1052.9928)">
							<stop  offset="0" style="stop-color:#FEBBBA"/>
							<stop  offset="1" style="stop-color:#FF928E"/>
						</linearGradient>
						<path class="st69" d="M58.9,119.7l-4.4,3.7c-8.4,3.6-14.5,7.8-19,12.4c-1.6-3-4.2-6.5-8.3-9.2c8.5-4.2,14.8-5.9,14.8-5.9
							C59.1,113.7,58.9,119.7,58.9,119.7z"/>
						<linearGradient id="SVGID_64_" gradientUnits="userSpaceOnUse" x1="31.9391" y1="107.4755" x2="0.6563" y2="195.5958">
							<stop  offset="0" style="stop-color:#4F52FF"/>
							<stop  offset="1" style="stop-color:#4042E2"/>
						</linearGradient>
						<path class="st70" d="M35.5,135.7c-13.8,14.3-9.8,7-9.9,19.2c0,4.5-4,21.8-4,21.8c-42.3-18.3-7-43.2,5.5-50.2
							C31.3,129.2,33.9,132.7,35.5,135.7z"/>
					</g>
				</g>
			</g>
		</g>
	</g>
</g>
</svg>
