<svg class="animated" id="freepik_stories-email-capture" xmlns="http://www.w3.org/2000/svg" viewBox="0 0 500 500" version="1.1" xmlns:xlink="http://www.w3.org/1999/xlink" xmlns:svgjs="http://svgjs.com/svgjs"><style>svg#freepik_stories-email-capture:not(.animated) .animable {opacity: 0;}svg#freepik_stories-email-capture.animated #freepik--Character--inject-2 {animation: 6s Infinite  linear floating;animation-delay: 0s;}svg#freepik_stories-email-capture.animated #freepik--Emails--inject-2 {animation: 6s Infinite  linear floating;animation-delay: 0s;}            @keyframes floating {                0% {                    opacity: 1;                    transform: translateY(0px);                }                50% {                    transform: translateY(-10px);                }                100% {                    opacity: 1;                    transform: translateY(0px);                }            }        </style><g id="freepik--background-complete--inject-2" class="animable" style="transform-origin: 250px 227.39px;"><rect y="382.4" width="500" height="0.25" style="fill: rgb(235, 235, 235); transform-origin: 250px 382.525px;" id="elq645okxrrrc" class="animable"></rect><rect x="52.46" y="391.92" width="33.12" height="0.25" style="fill: rgb(235, 235, 235); transform-origin: 69.02px 392.045px;" id="elyt9kmbp13n" class="animable"></rect><rect x="171.14" y="389.21" width="42.53" height="0.25" style="fill: rgb(235, 235, 235); transform-origin: 192.405px 389.335px;" id="elmzzsw0a85x" class="animable"></rect><rect x="93.47" y="395.43" width="19.19" height="0.25" style="fill: rgb(235, 235, 235); transform-origin: 103.065px 395.555px;" id="elsk1a8e8se37" class="animable"></rect><rect x="434.67" y="399.53" width="15.23" height="0.25" style="fill: rgb(235, 235, 235); transform-origin: 442.285px 399.655px;" id="elfp91g68q8jm" class="animable"></rect><rect x="391.47" y="399.53" width="34.29" height="0.25" style="fill: rgb(235, 235, 235); transform-origin: 408.615px 399.655px;" id="elb316gkzkgtl" class="animable"></rect><rect x="308" y="392.33" width="23.83" height="0.25" style="fill: rgb(235, 235, 235); transform-origin: 319.915px 392.455px;" id="el0qe306maxfsg" class="animable"></rect><path d="M237,337.8H43.91a5.71,5.71,0,0,1-5.7-5.71V60.66A5.71,5.71,0,0,1,43.91,55H237a5.71,5.71,0,0,1,5.71,5.71V332.09A5.71,5.71,0,0,1,237,337.8ZM43.91,55.2a5.46,5.46,0,0,0-5.45,5.46V332.09a5.46,5.46,0,0,0,5.45,5.46H237a5.47,5.47,0,0,0,5.46-5.46V60.66A5.47,5.47,0,0,0,237,55.2Z" style="fill: rgb(235, 235, 235); transform-origin: 140.46px 196.4px;" id="elm9aynmtrlbh" class="animable"></path><path d="M453.31,337.8H260.21a5.72,5.72,0,0,1-5.71-5.71V60.66A5.72,5.72,0,0,1,260.21,55h193.1A5.71,5.71,0,0,1,459,60.66V332.09A5.71,5.71,0,0,1,453.31,337.8ZM260.21,55.2a5.47,5.47,0,0,0-5.46,5.46V332.09a5.47,5.47,0,0,0,5.46,5.46h193.1a5.47,5.47,0,0,0,5.46-5.46V60.66a5.47,5.47,0,0,0-5.46-5.46Z" style="fill: rgb(235, 235, 235); transform-origin: 356.75px 196.4px;" id="el4w996nttww4" class="animable"></path><g id="el8desopsruu"><rect x="272.38" y="251.67" width="35.1" height="130.73" style="fill: rgb(230, 230, 230); transform-origin: 289.93px 317.035px; transform: rotate(180deg);" class="animable"></rect></g><polygon points="278.22 382.4 272.38 382.4 272.38 370.63 284.35 370.63 278.22 382.4" style="fill: rgb(240, 240, 240); transform-origin: 278.365px 376.515px;" id="elarql8hap81u" class="animable"></polygon><g id="elo2s86aoqi8r"><rect x="415.24" y="251.67" width="35.1" height="130.73" style="fill: rgb(230, 230, 230); transform-origin: 432.79px 317.035px; transform: rotate(180deg);" class="animable"></rect></g><g id="elft3akq7m78a"><rect x="272.38" y="251.67" width="147.96" height="126.21" style="fill: rgb(240, 240, 240); transform-origin: 346.36px 314.775px; transform: rotate(180deg);" class="animable"></rect></g><g id="elt3bxxj9gxs8"><rect x="276.91" y="257.26" width="138.89" height="34.61" style="fill: rgb(230, 230, 230); transform-origin: 346.355px 274.565px; transform: rotate(180deg);" class="animable"></rect></g><path d="M339.8,268h13.12c5.7,0,11.15-4.27,15.07-11.81H324.73C328.65,263.75,334.1,268,339.8,268Z" style="fill: rgb(240, 240, 240); transform-origin: 346.36px 262.095px;" id="elel0uet7jbgk" class="animable"></path><polygon points="414.5 382.4 420.34 382.4 420.34 370.63 408.37 370.63 414.5 382.4" style="fill: rgb(240, 240, 240); transform-origin: 414.355px 376.515px;" id="elcgbxbsfv3n8" class="animable"></polygon><g id="elp9lyig9hmg"><rect x="276.91" y="297.47" width="138.89" height="34.61" style="fill: rgb(230, 230, 230); transform-origin: 346.355px 314.775px; transform: rotate(180deg);" class="animable"></rect></g><path d="M339.8,308.22h13.12c5.7,0,11.15-4.27,15.07-11.81H324.73C328.65,304,334.1,308.22,339.8,308.22Z" style="fill: rgb(240, 240, 240); transform-origin: 346.36px 302.315px;" id="elppbbtyer5c9" class="animable"></path><g id="elrlpp39dcq3i"><rect x="276.91" y="337.67" width="138.89" height="34.61" style="fill: rgb(230, 230, 230); transform-origin: 346.355px 354.975px; transform: rotate(180deg);" class="animable"></rect></g><path d="M339.8,348.43h13.12c5.7,0,11.15-4.27,15.07-11.81H324.73C328.65,344.16,334.1,348.43,339.8,348.43Z" style="fill: rgb(240, 240, 240); transform-origin: 346.36px 342.525px;" id="elfa3piw3h0l5" class="animable"></path><polygon points="410.97 194.56 332.85 194.56 328.39 248.68 406.51 248.68 410.97 194.56" style="fill: rgb(230, 230, 230); transform-origin: 369.68px 221.62px;" id="eld7kn5f81ohk" class="animable"></polygon><polygon points="406.51 248.68 406.19 251.67 328.07 251.67 328.39 248.68 406.51 248.68" style="fill: rgb(230, 230, 230); transform-origin: 367.29px 250.175px;" id="elxoqph1fh5kp" class="animable"></polygon><polygon points="408.56 194.56 330.45 194.56 325.99 248.68 404.11 248.68 408.56 194.56" style="fill: rgb(240, 240, 240); transform-origin: 367.275px 221.62px;" id="els7q87qzoacg" class="animable"></polygon><path d="M402.53,245.15l3.26-46.88a1.08,1.08,0,0,0-1-1.24H333a1.05,1.05,0,0,0-1,1.05L328.76,245a1.1,1.1,0,0,0,1,1.24h71.81A1.06,1.06,0,0,0,402.53,245.15Z" style="fill: rgb(255, 255, 255); transform-origin: 367.276px 221.635px;" id="elf2m17l7kg78" class="animable"></path><polygon points="383.75 248.68 383.44 251.67 297.41 251.67 297.73 248.68 383.75 248.68" style="fill: rgb(240, 240, 240); transform-origin: 340.58px 250.175px;" id="elnn07cj9jcu" class="animable"></polygon><g id="el9a7r16oqgk"><rect x="52.91" y="302.13" width="27.19" height="80.27" style="fill: rgb(230, 230, 230); transform-origin: 66.505px 342.265px; transform: rotate(180deg);" class="animable"></rect></g><polygon points="58.08 382.4 52.91 382.4 52.91 363.25 63.49 363.25 58.08 382.4" style="fill: rgb(240, 240, 240); transform-origin: 58.2px 372.825px;" id="elcy0zcif4w4f" class="animable"></polygon><g id="elusmuod5rkxl"><rect x="208.04" y="302.13" width="27.19" height="80.27" style="fill: rgb(230, 230, 230); transform-origin: 221.635px 342.265px; transform: rotate(180deg);" class="animable"></rect></g><g id="elm6e21uj59ch"><rect x="52.91" y="302.13" width="159.63" height="75.04" style="fill: rgb(240, 240, 240); transform-origin: 132.725px 339.65px; transform: rotate(180deg);" class="animable"></rect></g><polygon points="207.38 382.4 212.55 382.4 212.55 363.25 201.97 363.25 207.38 382.4" style="fill: rgb(240, 240, 240); transform-origin: 207.26px 372.825px;" id="ell6kmu75qdvm" class="animable"></polygon><g id="elrwkhyurdpfm"><rect x="154.31" y="315.65" width="58.54" height="47.32" style="fill: rgb(230, 230, 230); transform-origin: 183.58px 339.31px; transform: rotate(-90deg);" class="animable"></rect></g><path d="M178.9,313.18h9.36A15.18,15.18,0,0,0,199,308.77H168.15A15.16,15.16,0,0,0,178.9,313.18Z" style="fill: rgb(240, 240, 240); transform-origin: 183.575px 310.975px;" id="elvm15txrihh" class="animable"></path><g id="elrzcq1vx82u"><rect x="103.46" y="315.65" width="58.54" height="47.32" style="fill: rgb(230, 230, 230); transform-origin: 132.73px 339.31px; transform: rotate(-90deg);" class="animable"></rect></g><path d="M127.57,313.18h9.36a15.16,15.16,0,0,0,10.75-4.41H116.82A15.18,15.18,0,0,0,127.57,313.18Z" style="fill: rgb(240, 240, 240); transform-origin: 132.25px 310.975px;" id="elkwzttaxvlah" class="animable"></path><g id="ell2lhf28oorc"><rect x="52.61" y="315.65" width="58.54" height="47.32" style="fill: rgb(230, 230, 230); transform-origin: 81.88px 339.31px; transform: rotate(-90deg);" class="animable"></rect></g><path d="M76.72,313.18h9.36a15.16,15.16,0,0,0,10.75-4.41H66A15.2,15.2,0,0,0,76.72,313.18Z" style="fill: rgb(240, 240, 240); transform-origin: 81.415px 310.975px;" id="eloxma7nsen4" class="animable"></path><rect x="126.1" y="256.21" width="40.66" height="45.8" rx="6.31" style="fill: rgb(245, 245, 245); transform-origin: 146.43px 279.11px;" id="elnrv5yc5sbu8" class="animable"></rect><rect x="176.76" y="266.78" width="31.28" height="35.23" rx="4.86" style="fill: rgb(245, 245, 245); transform-origin: 192.4px 284.395px;" id="el1qij717fqzk" class="animable"></rect><path d="M61.24,284.54s1,17.47,39.44,17.47,39.44-17.47,39.44-17.47Z" style="fill: rgb(240, 240, 240); transform-origin: 100.68px 293.275px;" id="el1zb5khzob5h" class="animable"></path><g id="elush9nyjgwue"><rect x="73.3" y="75.65" width="148.18" height="160.42" style="fill: rgb(230, 230, 230); transform-origin: 147.39px 155.86px; transform: rotate(180deg);" class="animable"></rect></g><g id="elx2cb083xzq"><rect x="68.78" y="75.65" width="150.59" height="160.42" style="fill: rgb(240, 240, 240); transform-origin: 144.075px 155.86px; transform: rotate(180deg);" class="animable"></rect></g><g id="eligno36de83"><rect x="73.3" y="236.07" width="148.18" height="6.75" style="fill: rgb(230, 230, 230); transform-origin: 147.39px 239.445px; transform: rotate(180deg);" class="animable"></rect></g><g id="el2hzb80kw2ff"><rect x="61.24" y="236.07" width="150.59" height="6.75" style="fill: rgb(240, 240, 240); transform-origin: 136.535px 239.445px; transform: rotate(180deg);" class="animable"></rect></g><g id="elygfc1oknmad"><rect x="70.19" y="86.9" width="147.76" height="137.93" style="fill: rgb(250, 250, 250); transform-origin: 144.07px 155.865px; transform: rotate(90deg);" class="animable"></rect></g><polygon points="181.93 229.74 164.32 81.98 136.82 81.98 154.44 229.74 181.93 229.74" style="fill: rgb(255, 255, 255); transform-origin: 159.375px 155.86px;" id="elyccx185eh6b" class="animable"></polygon><path d="M210.1,224.33a.46.46,0,0,0,.46-.45V86.1a.46.46,0,0,0-.46-.45.45.45,0,0,0-.45.45V223.88A.45.45,0,0,0,210.1,224.33Z" style="fill: rgb(240, 240, 240); transform-origin: 210.105px 154.99px;" id="elk47wiu9y0sh" class="animable"></path><polygon points="148.54 229.74 130.92 81.98 120.2 81.98 137.82 229.74 148.54 229.74" style="fill: rgb(255, 255, 255); transform-origin: 134.37px 155.86px;" id="elonj57sgq6h" class="animable"></polygon><g id="elt5hahdf26fm"><rect x="1.63" y="155.46" width="147.76" height="0.8" style="fill: rgb(230, 230, 230); transform-origin: 75.51px 155.86px; transform: rotate(90deg);" class="animable"></rect></g><g id="elrjlmku9urtd"><polygon points="67.28 95.44 215.46 95.44 216.04 84.44 67.86 84.44 67.28 95.44" style="fill: rgb(235, 235, 235); opacity: 0.6; transform-origin: 141.66px 89.94px;" class="animable"></polygon></g><g id="elg3v3p9zgc9e"><polygon points="67.28 113.49 215.46 113.49 216.04 102.48 67.86 102.48 67.28 113.49" style="fill: rgb(235, 235, 235); opacity: 0.6; transform-origin: 141.66px 107.985px;" class="animable"></polygon></g><g id="elpv3s87jehqs"><polygon points="67.28 131.53 215.46 131.53 216.04 120.53 67.86 120.53 67.28 131.53" style="fill: rgb(235, 235, 235); opacity: 0.6; transform-origin: 141.66px 126.03px;" class="animable"></polygon></g><g id="elsd6mi4t2bu"><polygon points="67.28 149.58 215.46 149.58 216.04 138.57 67.86 138.57 67.28 149.58" style="fill: rgb(235, 235, 235); opacity: 0.6; transform-origin: 141.66px 144.075px;" class="animable"></polygon></g><g id="el13bzzml7pksa"><polygon points="67.28 167.62 215.46 167.62 216.04 156.62 67.86 156.62 67.28 167.62" style="fill: rgb(235, 235, 235); opacity: 0.6; transform-origin: 141.66px 162.12px;" class="animable"></polygon></g><g id="elngkztzkx9zf"><polygon points="67.28 185.66 215.46 185.66 216.04 174.66 67.86 174.66 67.28 185.66" style="fill: rgb(235, 235, 235); opacity: 0.6; transform-origin: 141.66px 180.16px;" class="animable"></polygon></g><g id="el6xkiikvoxo5"><rect x="299.75" y="88.91" width="118.43" height="82.72" style="fill: rgb(240, 240, 240); transform-origin: 358.965px 130.27px; transform: rotate(180deg);" class="animable"></rect></g><g id="elg3niob6qf89"><rect x="293.78" y="88.91" width="123.33" height="82.72" style="fill: rgb(245, 245, 245); transform-origin: 355.445px 130.27px; transform: rotate(180deg);" class="animable"></rect></g><g id="elipmqmd7vr89"><rect x="320.6" y="75.13" width="69.69" height="110.29" style="fill: rgb(255, 255, 255); transform-origin: 355.445px 130.275px; transform: rotate(90deg);" class="animable"></rect></g><g id="elji1gagkhmt"><rect x="358.2" y="113.59" width="35.9" height="33.38" rx="6.42" style="fill: rgb(245, 245, 245); transform-origin: 376.15px 130.28px; transform: rotate(90deg);" class="animable"></rect></g><g id="elisr9jk5cew"><rect x="316.79" y="113.59" width="35.9" height="33.38" rx="6.42" style="fill: rgb(245, 245, 245); transform-origin: 334.74px 130.28px; transform: rotate(90deg);" class="animable"></rect></g></g><g id="freepik--Shadow--inject-2" class="animable" style="transform-origin: 250px 416.24px;"><ellipse id="freepik--path--inject-2" cx="250" cy="416.24" rx="193.89" ry="11.32" style="fill: rgb(245, 245, 245); transform-origin: 250px 416.24px;" class="animable"></ellipse></g><g id="freepik--Character--inject-2" class="animable animator-active" style="transform-origin: 312.195px 260.258px;"><polygon points="294.08 397.55 286.33 394.73 290.6 376.06 298.35 378.87 294.08 397.55" style="fill: rgb(127, 62, 59); transform-origin: 292.34px 386.805px;" id="elp2r2bqa515c" class="animable"></polygon><polygon points="355.2 407.84 346.98 407.84 344.64 388.79 352.87 388.79 355.2 407.84" style="fill: rgb(127, 62, 59); transform-origin: 349.92px 398.315px;" id="el28erkxuiqbw" class="animable"></polygon><path d="M345.9,406.89h10a.72.72,0,0,1,.7.56l1.7,7.31a1.19,1.19,0,0,1-1.19,1.46c-3.23-.05-5.58-.24-9.65-.24-2.5,0-10,.26-13.49.26s-3.94-3.42-2.53-3.73c6.33-1.38,11.09-3.29,13.1-5.12A2,2,0,0,1,345.9,406.89Z" style="fill: rgb(38, 50, 56); transform-origin: 344.512px 411.565px;" id="elr664pspsi2" class="animable"></path><path d="M286.05,393.16l8.8,1.88a.72.72,0,0,1,.57.7l.13,7.49a1.18,1.18,0,0,1-1.45,1.18c-3.17-.73-7.72-1.9-11.71-2.76-4.67-1-7.56-1.94-13-3.12-3.31-.71-3.54-4.24-2.1-4.25,6.59,0,10.58,1.27,16.72-.91A3.75,3.75,0,0,1,286.05,393.16Z" style="fill: rgb(38, 50, 56); transform-origin: 281px 398.772px;" id="elkiuk2jjuhfc" class="animable"></path><path d="M338.31,163q-3.78,5.76-7.71,11.46l-7.86,11.33c-1.28,1.89-2.62,3.75-3.84,5.6a17.54,17.54,0,0,1-3.35,3.76,11.77,11.77,0,0,1-5.52,2.6,11.38,11.38,0,0,1-3.13.07,11.73,11.73,0,0,1-2.73-.69,14.77,14.77,0,0,1-4.12-2.44,20.17,20.17,0,0,1-2.93-3c-.43-.52-.81-1.06-1.18-1.61s-.68-1.08-1.08-1.77l4.9-3.76,1.2.86,1.26.84a16.85,16.85,0,0,0,2.5,1.32,6,6,0,0,0,2.11.55c.57,0,.87-.11,1-.27a7,7,0,0,0,.51-.66c.26-.39.55-.9.95-1.65,1.18-2.11,2.34-4.13,3.56-6.14q3.62-6,7.39-11.86c1.27-1.95,2.53-3.89,3.84-5.81s2.58-3.85,3.94-5.74Z" style="fill: rgb(128, 62, 60); transform-origin: 316.585px 176.943px;" id="el8jpzafp935d" class="animable"></path><path d="M342.48,158c1.33,7.77-16.54,26.25-16.54,26.25l-14.45-12a98.82,98.82,0,0,1,13-17C331.8,147.89,341,149.51,342.48,158Z" style="fill: rgb(12, 90, 219); transform-origin: 327.02px 167.409px;" id="elw6dop0mijvo" class="animable"></path><g id="els4o29bav3rq"><path d="M342.48,158c1.33,7.77-16.54,26.25-16.54,26.25l-14.45-12a98.82,98.82,0,0,1,13-17C331.8,147.89,341,149.51,342.48,158Z" style="fill: rgb(255, 255, 255); opacity: 0.7; transform-origin: 327.02px 167.409px;" class="animable"></path></g><g id="elqu372na86x8"><path d="M331.15,167.05c-4.2,1.32-9.27,7.53-10.56,12.78l5.36,4.46A125.4,125.4,0,0,0,337.71,170C336.74,167.89,336,165.53,331.15,167.05Z" style="opacity: 0.2; transform-origin: 329.15px 175.428px;" class="animable"></path></g><g id="elegfvyfiauew"><polygon points="290.6 376.06 288.4 385.69 296.15 388.5 298.35 378.88 290.6 376.06" style="opacity: 0.2; transform-origin: 293.375px 382.28px;" class="animable"></polygon></g><g id="elpvzslidoqar"><polygon points="352.87 388.79 344.64 388.79 345.85 398.61 354.08 398.61 352.87 388.79" style="opacity: 0.2; transform-origin: 349.36px 393.7px;" class="animable"></polygon></g><path d="M379.25,159.32a182.64,182.64,0,0,0-8.43,26.18c-1.54,6.23-2.73,12.21-3.68,17.65-2.23,12.75-3.13,22.57-3.91,25.84l-43.16-8.74C319.76,173,334,150.57,334,150.57a86.33,86.33,0,0,1,10.57.07c.74.05,1.5.12,2.26.21a162.21,162.21,0,0,1,18.35,3.71c1.15.29,2.3.62,3.43.95C374.29,157.23,379.25,159.32,379.25,159.32Z" style="fill: rgb(12, 90, 219); transform-origin: 349.658px 189.716px;" id="eloc7924f4pvq" class="animable"></path><g id="ellpv9si2luu"><path d="M379.25,159.32a182.64,182.64,0,0,0-8.43,26.18c-1.54,6.23-2.73,12.21-3.68,17.65-2.23,12.75-3.13,22.57-3.91,25.84l-43.16-8.74C319.76,173,334,150.57,334,150.57a86.33,86.33,0,0,1,10.57.07c.74.05,1.5.12,2.26.21a162.21,162.21,0,0,1,18.35,3.71c1.15.29,2.3.62,3.43.95C374.29,157.23,379.25,159.32,379.25,159.32Z" style="fill: rgb(255, 255, 255); opacity: 0.7; transform-origin: 349.658px 189.716px;" class="animable"></path></g><path d="M347.73,159.71c-1.69,3-4,5.34-6.93,13.5.18,1.85.46,3.73.81,5.63q2-2.29,4.2-4.54c2.11-8,1.72-10.28,3.63-14.18Z" style="fill: rgb(12, 90, 219); transform-origin: 345.12px 169.275px;" id="elx47p9jcmnds" class="animable"></path><polygon points="347.32 162.34 346.62 157.98 349.79 157.29 351.71 159.07 347.32 162.34" style="fill: rgb(12, 90, 219); transform-origin: 349.165px 159.815px;" id="el6d6g9pril8f" class="animable"></polygon><path d="M368.58,155.51c-10.71,7.37-19.81,15.12-27,23.33-1.88-10.06-1.43-19.53,1.92-28.26a83.46,83.46,0,0,0-9.56,0s-14.21,22.45-13.9,69.68L363.23,229c.78-3.27,1.68-13.09,3.91-25.84.95-5.44,2.14-11.42,3.68-17.65a182.64,182.64,0,0,1,8.43-26.18S374.29,157.23,368.58,155.51Z" style="fill: rgb(38, 50, 56); transform-origin: 349.643px 189.722px;" id="elengdxk503lh" class="animable"></path><path d="M367.3,133.53c-2.29,5.67-5.53,16.25-2.15,21a18.57,18.57,0,0,1-15.23,2.77c-5.06-1.14-4.63-4.75-3.12-6.48,6.89-.24,7.66-5.16,7.39-10Z" style="fill: rgb(127, 62, 59); transform-origin: 356.544px 145.704px;" id="el94y6fszvox4" class="animable"></path><path d="M349.79,157.3s1.42,2.84,3.18,5.73c3.7-1.07,12.5-4.16,13.12-8.61a4.48,4.48,0,0,0-1.69-2.5A48.85,48.85,0,0,1,349.79,157.3Z" style="fill: rgb(255, 255, 255); transform-origin: 357.94px 157.475px;" id="elhg8idkx88nk" class="animable"></path><path d="M349.79,157.3a23.7,23.7,0,0,0-5.35,3.91c-2.05-2.18,1-10.05,2.13-10.76a5.73,5.73,0,0,1,3.49-.4S346.16,155.54,349.79,157.3Z" style="fill: rgb(255, 255, 255); transform-origin: 346.904px 155.574px;" id="el5rr9p9z2gz4" class="animable"></path><g id="el6y82frvrxyq"><path d="M362,136.52l-7.76,4.34a19.86,19.86,0,0,1-.06,3.37c2.58.15,6.57-1.91,7.34-4.49A9.09,9.09,0,0,0,362,136.52Z" style="opacity: 0.2; transform-origin: 358.092px 140.379px;" class="animable"></path></g><path d="M352.33,113c-2.24,2.45-4.49,8.58.41,8.53S356.18,108.78,352.33,113Z" style="fill: rgb(38, 50, 56); transform-origin: 352.834px 116.836px;" id="el5z8m274zpnf" class="animable"></path><path d="M371.2,126.51c-3,7.59-4.37,12.18-9.57,14.84-7.82,4-16.2-2.76-15.52-11.11.61-7.52,5.41-18.66,14-19.19A11.25,11.25,0,0,1,371.2,126.51Z" style="fill: rgb(127, 62, 59); transform-origin: 359.048px 126.781px;" id="els6pv7htfjn" class="animable"></path><path d="M354.4,116c-5.09-2.54-6.68-9.64,1.75-11.47a17.33,17.33,0,0,1,5.91,0s-2.2,1.36-1.44,3.4a8.22,8.22,0,0,1,9.73-1.27c-1.58,1.24-1.93,5.11,1,5.19,4.42.12,9.56,3.33,7,7.78,3.73,4.67-2.09,11.16-10.34,11.82-2.25-4.53,1.38-11.23,1.38-11.23C365.23,120.11,359,118.28,354.4,116Z" style="fill: rgb(38, 50, 56); transform-origin: 364.854px 117.863px;" id="el4ldd2v7di2m" class="animable"></path><path d="M377.1,119.76s3.77-.52,2.49-4.07C382.4,118.05,380.34,120.23,377.1,119.76Z" style="fill: rgb(38, 50, 56); transform-origin: 379.007px 117.757px;" id="elgx7774g1po6" class="animable"></path><path d="M376.32,120.35s3.66-1.07,3.94,2.69C381.86,119.73,379.1,118.59,376.32,120.35Z" style="fill: rgb(38, 50, 56); transform-origin: 378.526px 121.284px;" id="elxuzr627e54" class="animable"></path><path d="M372.08,133.94a7.62,7.62,0,0,1-5,3.08c-2.69.39-3.71-2.11-2.69-4.47.91-2.13,3.4-4.9,6-4.21S373.53,131.89,372.08,133.94Z" style="fill: rgb(127, 62, 59); transform-origin: 368.435px 132.646px;" id="ela5jj9vv4cde" class="animable"></path><path d="M286.12,382.85l13.13,4.76s10.25-45.14,15.7-70.16c1.66-7.62,5-18.08,8.94-29.24,5-14,10.92-29.16,15.72-41,5.06-12.45,8.83-21.24,8.83-21.24l-28.37-5.74s-21.65,62.3-26.52,86.92C288.49,332.77,286.12,382.85,286.12,382.85Z" style="fill: rgb(12, 90, 219); transform-origin: 317.28px 303.92px;" id="elrilg2tfegef" class="animable"></path><g id="elsrdhox5cws"><g style="opacity: 0.3; transform-origin: 317.28px 303.92px;" class="animable"><path d="M286.12,382.85l13.13,4.76s10.25-45.14,15.7-70.16c1.66-7.62,5-18.08,8.94-29.24,5-14,10.92-29.16,15.72-41,5.06-12.45,8.83-21.24,8.83-21.24l-28.37-5.74s-21.65,62.3-26.52,86.92C288.49,332.77,286.12,382.85,286.12,382.85Z" id="ell4fz2y1qkjl" class="animable" style="transform-origin: 317.28px 303.92px;"></path></g></g><g id="elw9jyfd3u3in"><path d="M323.89,288.21c5-14,10.92-29.16,15.72-41l-2.2-6.79C329.3,248,324.23,273.84,323.89,288.21Z" style="opacity: 0.2; transform-origin: 331.75px 264.315px;" class="animable"></path></g><path d="M335.37,223.35s-5.06,71-5.37,95.17c-.33,26.43,12,78.19,12,78.19h15.06s-6-46.71-4-72.89c2.24-29.28,10.14-94.83,10.14-94.83Z" style="fill: rgb(12, 90, 219); transform-origin: 346.597px 310.03px;" id="el1qzj63efk8v" class="animable"></path><g id="elkf7n6acyyzo"><g style="opacity: 0.3; transform-origin: 346.597px 310.03px;" class="animable"><path d="M335.37,223.35s-5.06,71-5.37,95.17c-.33,26.43,12,78.19,12,78.19h15.06s-6-46.71-4-72.89c2.24-29.28,10.14-94.83,10.14-94.83Z" id="el0txm9vmwkue" class="animable" style="transform-origin: 346.597px 310.03px;"></path></g></g><polygon points="340.23 397.04 357.97 397.04 357.92 391.74 339.39 390.67 340.23 397.04" style="fill: rgb(38, 50, 56); transform-origin: 348.68px 393.855px;" id="el97wgx0o0d0v" class="animable"></polygon><polygon points="284.37 382.68 300.09 388.13 301.8 383.06 284.61 376.8 284.37 382.68" style="fill: rgb(38, 50, 56); transform-origin: 293.085px 382.465px;" id="elk8mj7n254no" class="animable"></polygon><path d="M358.77,124.73c-.2.63-.7,1-1.11.89s-.58-.76-.37-1.4.7-1,1.11-.89S359,124.1,358.77,124.73Z" style="fill: rgb(38, 50, 56); transform-origin: 358.034px 124.475px;" id="elg19jr2tpufu" class="animable"></path><g id="elz1akvf76dpa"><ellipse cx="350.92" cy="122.08" rx="1.2" ry="0.79" style="fill: rgb(38, 50, 56); transform-origin: 350.92px 122.08px; transform: rotate(-72.36deg);" class="animable"></ellipse></g><path d="M353.82,123.41a23.13,23.13,0,0,1-4.75,4.17,3.93,3.93,0,0,0,2.82,1.51Z" style="fill: rgb(99, 15, 15); transform-origin: 351.445px 126.25px;" id="elthvz9h98dtd" class="animable"></path><path d="M354.58,134.49a7.33,7.33,0,0,1-.83-.22.21.21,0,0,1-.13-.25.2.2,0,0,1,.25-.12,5.17,5.17,0,0,0,4.7-.59.19.19,0,0,1,.27,0,.18.18,0,0,1,0,.27A5.41,5.41,0,0,1,354.58,134.49Z" style="fill: rgb(38, 50, 56); transform-origin: 356.257px 133.928px;" id="elbaac6brqouw" class="animable"></path><path d="M361.72,123.16a.38.38,0,0,1-.3-.25,3.12,3.12,0,0,0-2-2,.4.4,0,0,1-.29-.48.39.39,0,0,1,.48-.27,3.9,3.9,0,0,1,2.51,2.54.38.38,0,0,1-.25.49A.31.31,0,0,1,361.72,123.16Z" style="fill: rgb(38, 50, 56); transform-origin: 360.63px 121.668px;" id="elizvx27vx1zd" class="animable"></path><path d="M349.4,118.85a.36.36,0,0,1-.2-.11.38.38,0,0,1,0-.55,3.79,3.79,0,0,1,3.33-1.19.4.4,0,0,1,.31.46.39.39,0,0,1-.45.31,3,3,0,0,0-2.63,1A.42.42,0,0,1,349.4,118.85Z" style="fill: rgb(38, 50, 56); transform-origin: 350.964px 117.912px;" id="elk4opkangseo" class="animable"></path><path d="M343.19,408.32a2.47,2.47,0,0,1-1.59-.42,1.2,1.2,0,0,1-.41-1,.63.63,0,0,1,.33-.55c.9-.47,3.57,1.17,3.87,1.35a.21.21,0,0,1,.1.2.2.2,0,0,1-.15.16A9.56,9.56,0,0,1,343.19,408.32Zm-1.24-1.7a.58.58,0,0,0-.25.05.25.25,0,0,0-.12.23.8.8,0,0,0,.27.71c.45.37,1.53.42,2.92.14A8,8,0,0,0,342,406.62Z" style="fill: rgb(12, 90, 219); transform-origin: 343.339px 407.297px;" id="elzdv5u38p1pi" class="animable"></path><path d="M345.29,408a.15.15,0,0,1-.09,0c-.85-.46-2.52-2.27-2.35-3.18a.62.62,0,0,1,.61-.51,1,1,0,0,1,.83.25c1,.78,1.19,3.15,1.2,3.25a.19.19,0,0,1-.2.21Zm-1.69-3.33h-.09c-.25,0-.27.15-.28.2-.1.54,1,1.9,1.82,2.55a4.76,4.76,0,0,0-1-2.58A.67.67,0,0,0,343.6,404.7Z" style="fill: rgb(12, 90, 219); transform-origin: 344.165px 406.159px;" id="ellz7v4mdiz0n" class="animable"></path><path d="M285,394.1h0c-1.35,0-3.73-.2-4.45-1.17a1.09,1.09,0,0,1-.17-1,.59.59,0,0,1,.42-.43c1.1-.35,4,2,4.32,2.26a.19.19,0,0,1,.06.22A.18.18,0,0,1,285,394.1Zm-4-2.26-.07,0a.2.2,0,0,0-.16.18.7.7,0,0,0,.1.66c.41.54,1.72.9,3.56,1C283.26,392.81,281.64,391.76,281,391.84Z" style="fill: rgb(12, 90, 219); transform-origin: 282.76px 392.782px;" id="elv1ujjbwu2cd" class="animable"></path><path d="M285,394.1a.23.23,0,0,1-.14,0c-.89-.64-2.46-2.8-2.12-3.67.07-.21.28-.44.82-.38a1.45,1.45,0,0,1,1,.55c.85,1.06.62,3.27.61,3.37a.19.19,0,0,1-.11.15Zm-1.69-3.71c-.17,0-.2.11-.21.14-.2.52.83,2.17,1.7,3a4.51,4.51,0,0,0-.56-2.71,1.07,1.07,0,0,0-.72-.41Z" style="fill: rgb(12, 90, 219); transform-origin: 283.949px 392.08px;" id="eln0fyqivpr5g" class="animable"></path><path d="M300.09,184.54,294,178.76l-2.87,8.85s5.74,4.82,8.1,1.77Z" style="fill: rgb(127, 62, 59); transform-origin: 295.61px 184.576px;" id="eltc9zbsubon8" class="animable"></path><polygon points="285.89 177.01 286.01 185.46 291.14 187.61 294.01 178.76 285.89 177.01" style="fill: rgb(127, 62, 59); transform-origin: 289.95px 182.31px;" id="elfp2resoycub" class="animable"></polygon><path d="M314,164.57l-62.45-13L246,178.1l62.45,13a15,15,0,0,1-6.12,29.38l-62.45-13L234.34,234l62.45,13a42.23,42.23,0,0,0,49.81-32.64l2.13-10.26Z" style="fill: rgb(12, 90, 219); transform-origin: 291.535px 199.716px;" id="elidutwhh4oz" class="animable"></path><g id="el4mne5o5x3s9"><path d="M314,164.57l-62.45-13L246,178.1l62.45,13a15,15,0,0,1-6.12,29.38l-62.45-13L234.34,234l62.45,13a42.23,42.23,0,0,0,49.81-32.64l2.13-10.26Z" style="opacity: 0.1; transform-origin: 291.535px 199.716px;" class="animable"></path></g><path d="M348.48,205.33A42.23,42.23,0,0,1,298.67,238l-62.45-13,5.53-26.54,62.45,13a15,15,0,1,0,6.11-29.37l-62.45-13,5.52-26.54,62.46,13a42.26,42.26,0,0,1,32.64,49.81Z" style="fill: rgb(12, 90, 219); transform-origin: 292.779px 190.706px;" id="elalknxts8kxb" class="animable"></path><g id="elwhotvmorxka"><rect x="249.43" y="144.61" width="24.28" height="36.34" style="fill: rgb(255, 255, 255); opacity: 0.5; transform-origin: 261.57px 162.78px; transform: rotate(11.76deg);" class="animable"></rect></g><g id="elhxiojec2c4i"><rect x="237.79" y="200.53" width="24.28" height="36.34" style="fill: rgb(255, 255, 255); opacity: 0.5; transform-origin: 249.93px 218.7px; transform: rotate(11.76deg);" class="animable"></rect></g><path d="M383.12,166.55c.84,3,1.48,5.78,2.13,8.69s1.15,5.83,1.62,8.79.81,6,1,9.07a47.33,47.33,0,0,1-.28,9.86,22,22,0,0,1-.63,2.87,16.27,16.27,0,0,1-.57,1.59,7.18,7.18,0,0,1-.39.86l-.23.45-.32.53a10.41,10.41,0,0,1-3.2,3.18,13.1,13.1,0,0,1-3.28,1.47,21.17,21.17,0,0,1-5.61.8,37.26,37.26,0,0,1-4.92-.27,69.16,69.16,0,0,1-17.58-4.78l1.67-5.95,4.14.46c1.4.15,2.79.25,4.17.36a79.12,79.12,0,0,0,8.08.24,30.35,30.35,0,0,0,3.7-.32,10.47,10.47,0,0,0,2.86-.75,2,2,0,0,0,.59-.4c.05-.08-.07,0-.21.12a.15.15,0,0,0,0,.06s0,0,0,0l0-.13c0-.11.06-.27.1-.45a12.84,12.84,0,0,0,.18-1.37,42.25,42.25,0,0,0-.29-7.38c-.32-2.63-.72-5.33-1.23-8-1-5.4-2.23-11-3.53-16.26Z" style="fill: rgb(128, 62, 60); transform-origin: 369.433px 190.631px;" id="elr6vvin8nk8" class="animable"></path><path d="M381.47,160.52c6.45,4.53,8.58,28,8.58,28l-20,2.43a115.93,115.93,0,0,1-2.66-20.6C367.12,159.21,373.65,155,381.47,160.52Z" style="fill: rgb(12, 90, 219); transform-origin: 378.716px 174.527px;" id="eleq2i6k76n3" class="animable"></path><g id="el87f9y1euqwa"><path d="M381.47,160.52c6.45,4.53,8.58,28,8.58,28l-20,2.43a115.93,115.93,0,0,1-2.66-20.6C367.12,159.21,373.65,155,381.47,160.52Z" style="fill: rgb(255, 255, 255); opacity: 0.7; transform-origin: 378.716px 174.527px;" class="animable"></path></g><path d="M354.56,204,348.69,198,345,208s6.11,3.92,8.54.88Z" style="fill: rgb(127, 62, 59); transform-origin: 349.78px 204.018px;" id="el69nojrv6s2y" class="animable"></path><polygon points="341.91 197.17 339.27 205.5 345.04 207.95 348.69 198.04 341.91 197.17" style="fill: rgb(127, 62, 59); transform-origin: 343.98px 202.56px;" id="ellny6l1e2e2" class="animable"></polygon></g><g id="freepik--Emails--inject-2" class="animable" style="transform-origin: 148.377px 159.615px;"><path d="M227.7,103.12v38.43a4.28,4.28,0,0,1-4.27,4.27H157.71a4.28,4.28,0,0,1-4.27-4.27V103.12a4.21,4.21,0,0,1,.31-1.59,4.29,4.29,0,0,1,4-2.68h65.72a4.28,4.28,0,0,1,4,2.68A4.21,4.21,0,0,1,227.7,103.12Z" style="fill: rgb(12, 90, 219); transform-origin: 190.572px 122.335px;" id="elh2mjz9etyi5" class="animable"></path><g id="elbpfr5xx99ye"><path d="M227.39,101.53l-35.07,29.11a2.75,2.75,0,0,1-3.5,0l-35.07-29.11a4.29,4.29,0,0,1,4-2.68h65.72A4.28,4.28,0,0,1,227.39,101.53Z" style="opacity: 0.3; transform-origin: 190.57px 115.059px;" class="animable"></path></g><path d="M202,78.35H167.06v34.22l21.76,18.07a2.75,2.75,0,0,0,3.5,0l21.77-18.07V86Z" style="fill: rgb(255, 255, 255); transform-origin: 190.575px 104.809px;" id="el32rydhygiau" class="animable"></path><path d="M190.57,131.88a3.32,3.32,0,0,1-2.14-.78L166.67,113a.62.62,0,0,1-.22-.47V78.35a.61.61,0,0,1,.61-.61H202a.59.59,0,0,1,.32.09l12.14,7.63a.6.6,0,0,1,.28.52v26.59a.62.62,0,0,1-.22.47L192.71,131.1A3.32,3.32,0,0,1,190.57,131.88Zm-22.91-19.6,21.55,17.89a2.13,2.13,0,0,0,2.72,0l21.55-17.89v-26L201.77,79H167.66Z" style="fill: rgb(12, 90, 219); transform-origin: 190.595px 104.81px;" id="elzys05p2ulfo" class="animable"></path><polygon points="214.09 85.98 201.95 78.34 205.88 88.46 214.09 85.98" style="fill: rgb(235, 235, 235); transform-origin: 208.02px 83.4px;" id="elzetb8v23f8f" class="animable"></polygon><path d="M205.88,89.07a.62.62,0,0,1-.57-.39l-3.93-10.12a.61.61,0,0,1,.89-.73l12.14,7.63a.62.62,0,0,1,.28.6.6.6,0,0,1-.43.5L206.05,89A.47.47,0,0,1,205.88,89.07Zm-2.7-9.23,3.06,7.87,6.39-1.93Z" style="fill: rgb(12, 90, 219); transform-origin: 208.019px 83.4056px;" id="el3oseiwdyx76" class="animable"></path><path d="M200.09,110.75h2.76a10.51,10.51,0,0,1-4.3,4.13,16,16,0,0,1-7.64,1.71,16.58,16.58,0,0,1-7.28-1.45,8.7,8.7,0,0,1-4.31-4.27,12.27,12.27,0,0,1-1-6.14,14.87,14.87,0,0,1,2.25-6.8,12.72,12.72,0,0,1,5.09-4.72,15.28,15.28,0,0,1,7-1.58,12.29,12.29,0,0,1,5.71,1.27,8.05,8.05,0,0,1,3.61,3.62,9.62,9.62,0,0,1,1,5.12,10.34,10.34,0,0,1-2.5,6,8.6,8.6,0,0,1-6.82,3.38,2.72,2.72,0,0,1-1.59-.38,1.65,1.65,0,0,1-.64-1.1,5.36,5.36,0,0,1-3.65,1.48,4.39,4.39,0,0,1-3.46-1.49,5.12,5.12,0,0,1-1.11-4,10.32,10.32,0,0,1,2.14-5.57,6.81,6.81,0,0,1,5.56-3.06,3.45,3.45,0,0,1,3.28,1.76l.43-1.44h3.43l-2.68,9.31a7.15,7.15,0,0,0-.27,1.14.66.66,0,0,0,.11.49.46.46,0,0,0,.35.16,3.2,3.2,0,0,0,1.66-.75,8,8,0,0,0,2.35-2.65,8.18,8.18,0,0,0,1.08-3.44,6.5,6.5,0,0,0-1.89-5.34Q196.51,94,192.36,94a12.27,12.27,0,0,0-6.07,1.43,10.23,10.23,0,0,0-4,4,13.13,13.13,0,0,0-1.66,5.42,8.81,8.81,0,0,0,1,5,7.17,7.17,0,0,0,3.62,3.28,14.3,14.3,0,0,0,5.64,1,15.45,15.45,0,0,0,5.4-.86A9.24,9.24,0,0,0,200.09,110.75Zm-13.62-5.33a3.48,3.48,0,0,0,.48,2.42,1.94,1.94,0,0,0,1.6.78,3,3,0,0,0,1.41-.36,4.09,4.09,0,0,0,1-.82,7.44,7.44,0,0,0,1.36-2.31,9.07,9.07,0,0,0,.72-2.83,3.14,3.14,0,0,0-.5-2.25,2,2,0,0,0-1.66-.79,3.21,3.21,0,0,0-2.13.87,5.75,5.75,0,0,0-1.62,2.46A10.3,10.3,0,0,0,186.47,105.42Z" style="fill: rgb(12, 90, 219); transform-origin: 190.638px 104.112px;" id="elhrdeb9u5yet" class="animable"></path><path d="M178.47,196.12v34.41a3.83,3.83,0,0,1-3.82,3.83H115.81a3.84,3.84,0,0,1-3.83-3.83V196.12a3.74,3.74,0,0,1,.28-1.42,3.83,3.83,0,0,1,3.55-2.4h58.84a3.82,3.82,0,0,1,3.54,2.39A3.65,3.65,0,0,1,178.47,196.12Z" style="fill: rgb(12, 90, 219); transform-origin: 145.225px 213.33px;" id="ele5jr80gsvzo" class="animable"></path><g id="elehqojipit6a"><path d="M178.19,194.69l-31.4,26.07a2.46,2.46,0,0,1-3.13,0l-31.4-26.06a3.83,3.83,0,0,1,3.55-2.4h58.84A3.82,3.82,0,0,1,178.19,194.69Z" style="opacity: 0.3; transform-origin: 145.225px 206.811px;" class="animable"></path></g><path d="M155.42,173.94H124.17v30.64l19.49,16.18a2.43,2.43,0,0,0,3.13,0l19.49-16.18V180.77Z" style="fill: rgb(255, 255, 255); transform-origin: 145.225px 197.636px;" id="el45yuu40or6i" class="animable"></path><path d="M145.23,221.87a3,3,0,0,1-1.92-.69L123.82,205a.55.55,0,0,1-.19-.42V173.94a.55.55,0,0,1,.54-.55h31.25a.52.52,0,0,1,.29.09l10.86,6.83a.54.54,0,0,1,.26.46v23.81a.56.56,0,0,1-.2.42l-19.49,16.18A3,3,0,0,1,145.23,221.87Zm-20.51-17.54,19.29,16a1.9,1.9,0,0,0,2.44,0l19.29-16V181.07l-10.48-6.59H124.72Z" style="fill: rgb(12, 90, 219); transform-origin: 145.23px 197.63px;" id="el8b5vjodltu" class="animable"></path><polygon points="166.28 180.77 155.42 173.94 158.93 182.99 166.28 180.77" style="fill: rgb(235, 235, 235); transform-origin: 160.85px 178.465px;" id="elgwpugcs69fc" class="animable"></polygon><path d="M158.93,183.54a.54.54,0,0,1-.5-.35l-3.52-9.06a.53.53,0,0,1,.16-.61.54.54,0,0,1,.64,0l10.86,6.83a.55.55,0,0,1,.25.54.54.54,0,0,1-.38.44l-7.35,2.22A.41.41,0,0,1,158.93,183.54Zm-2.41-8.27,2.74,7.06L165,180.6Z" style="fill: rgb(12, 90, 219); transform-origin: 160.849px 178.484px;" id="eliq9sk2avgfs" class="animable"></path><path d="M153.75,203h2.47a9.35,9.35,0,0,1-3.85,3.7,14.33,14.33,0,0,1-6.84,1.53,15,15,0,0,1-6.52-1.29,7.8,7.8,0,0,1-3.85-3.83,10.91,10.91,0,0,1-.94-5.5,13.19,13.19,0,0,1,2-6.08,11.28,11.28,0,0,1,4.56-4.23,13.52,13.52,0,0,1,6.24-1.42,11,11,0,0,1,5.12,1.14,7.18,7.18,0,0,1,3.23,3.24,8.65,8.65,0,0,1,.85,4.58,9.24,9.24,0,0,1-2.24,5.36,7.67,7.67,0,0,1-6.1,3,2.47,2.47,0,0,1-1.43-.33,1.47,1.47,0,0,1-.57-1,4.8,4.8,0,0,1-3.27,1.32,3.93,3.93,0,0,1-3.1-1.33,4.6,4.6,0,0,1-1-3.54,9.42,9.42,0,0,1,1.92-5,6.1,6.1,0,0,1,5-2.74,3.07,3.07,0,0,1,2.94,1.58l.39-1.29h3.06l-2.4,8.33q-.21.8-.24,1a.63.63,0,0,0,.1.44.41.41,0,0,0,.31.14,2.85,2.85,0,0,0,1.49-.67,7.26,7.26,0,0,0,2.11-2.37,7.49,7.49,0,0,0,1-3.08,5.83,5.83,0,0,0-1.7-4.78,7.6,7.6,0,0,0-5.63-1.93,10.92,10.92,0,0,0-5.44,1.29,9.08,9.08,0,0,0-3.58,3.61,11.78,11.78,0,0,0-1.48,4.85,7.92,7.92,0,0,0,.89,4.47,6.43,6.43,0,0,0,3.25,2.93,12.66,12.66,0,0,0,5,.92,13.62,13.62,0,0,0,4.84-.77A8.2,8.2,0,0,0,153.75,203Zm-12.2-4.77a3.11,3.11,0,0,0,.44,2.17,1.72,1.72,0,0,0,1.42.7,2.62,2.62,0,0,0,1.27-.33,3.3,3.3,0,0,0,.93-.73,6.38,6.38,0,0,0,1.22-2.07,8.51,8.51,0,0,0,.65-2.53,2.87,2.87,0,0,0-.46-2,1.78,1.78,0,0,0-1.48-.7,2.92,2.92,0,0,0-1.91.77,5.26,5.26,0,0,0-1.45,2.2A9.56,9.56,0,0,0,141.55,198.18Z" style="fill: rgb(12, 90, 219); transform-origin: 145.215px 197.057px;" id="el0dzughaygc1m" class="animable"></path><path d="M126.62,127.37v29.79a3.32,3.32,0,0,1-3.31,3.31H72.37a3.32,3.32,0,0,1-3.32-3.31V127.37a3.18,3.18,0,0,1,.25-1.23,3.31,3.31,0,0,1,3.07-2.08h50.94a3.33,3.33,0,0,1,3.07,2.07A3.22,3.22,0,0,1,126.62,127.37Z" style="fill: rgb(12, 90, 219); transform-origin: 97.835px 142.265px;" id="eli8rdt6jrmk" class="animable"></path><g id="eli1bgj29vhpg"><path d="M126.38,126.13,99.19,148.7a2.13,2.13,0,0,1-2.71,0L69.3,126.14a3.31,3.31,0,0,1,3.07-2.08h50.94A3.33,3.33,0,0,1,126.38,126.13Z" style="opacity: 0.3; transform-origin: 97.84px 136.623px;" class="animable"></path></g><path d="M106.66,108.16h-27V134.7l16.87,14a2.1,2.1,0,0,0,2.71,0l16.88-14V114.08Z" style="fill: rgb(255, 255, 255); transform-origin: 97.89px 128.678px;" id="elz1rlr62ver" class="animable"></path><path d="M97.84,149.66a2.59,2.59,0,0,1-1.66-.6l-16.87-14a.46.46,0,0,1-.17-.36V108.16a.47.47,0,0,1,.47-.47h27.05a.46.46,0,0,1,.25.08l9.41,5.91a.5.5,0,0,1,.22.4V134.7a.49.49,0,0,1-.17.36l-16.87,14A2.59,2.59,0,0,1,97.84,149.66ZM80.08,134.47l16.7,13.87a1.65,1.65,0,0,0,2.11,0l16.7-13.87V114.34l-9.07-5.7H80.08Z" style="fill: rgb(12, 90, 219); transform-origin: 97.84px 128.675px;" id="elx3dqsgujb5" class="animable"></path><polygon points="116.07 114.08 106.66 108.16 109.7 116 116.07 114.08" style="fill: rgb(235, 235, 235); transform-origin: 111.365px 112.08px;" id="elvtub3i50ld" class="animable"></polygon><path d="M109.7,116.48a.46.46,0,0,1-.43-.31l-3-7.84a.47.47,0,0,1,.69-.56l9.41,5.91a.48.48,0,0,1,.21.47.45.45,0,0,1-.33.38l-6.36,1.93Zm-2.09-7.16,2.38,6.11,5-1.5Z" style="fill: rgb(12, 90, 219); transform-origin: 111.413px 112.089px;" id="elqlhycdk9b3f" class="animable"></path><path d="M105.22,133.28h2.14a8.12,8.12,0,0,1-3.34,3.2,12.35,12.35,0,0,1-5.92,1.33,12.86,12.86,0,0,1-5.64-1.12,6.73,6.73,0,0,1-3.34-3.31,9.51,9.51,0,0,1-.81-4.76,11.49,11.49,0,0,1,1.75-5.27A9.74,9.74,0,0,1,94,119.69a11.77,11.77,0,0,1,5.41-1.23,9.43,9.43,0,0,1,4.43,1,6.27,6.27,0,0,1,2.8,2.8,7.5,7.5,0,0,1,.73,4,8,8,0,0,1-1.94,4.64,6.65,6.65,0,0,1-5.28,2.62,2.08,2.08,0,0,1-1.24-.3,1.27,1.27,0,0,1-.49-.85,4.17,4.17,0,0,1-2.83,1.15,3.39,3.39,0,0,1-2.68-1.16,4,4,0,0,1-.87-3.06,8.12,8.12,0,0,1,1.67-4.32,5.27,5.27,0,0,1,4.3-2.37,2.65,2.65,0,0,1,2.54,1.37l.34-1.12h2.66L101.47,130a5.93,5.93,0,0,0-.21.88.54.54,0,0,0,.09.38.34.34,0,0,0,.27.12,2.47,2.47,0,0,0,1.29-.58,6.63,6.63,0,0,0,2.66-4.72A5.05,5.05,0,0,0,104.1,122a6.62,6.62,0,0,0-4.88-1.66,9.47,9.47,0,0,0-4.7,1.11,7.78,7.78,0,0,0-3.1,3.13,10.06,10.06,0,0,0-1.29,4.2,6.89,6.89,0,0,0,.77,3.86,5.6,5.6,0,0,0,2.82,2.54,11.1,11.1,0,0,0,4.37.8,11.75,11.75,0,0,0,4.18-.67A7.06,7.06,0,0,0,105.22,133.28Zm-10.56-4.13A2.7,2.7,0,0,0,95,131a1.51,1.51,0,0,0,1.24.6,2.28,2.28,0,0,0,1.1-.28,2.9,2.9,0,0,0,.8-.63,5.79,5.79,0,0,0,1.06-1.79,7.66,7.66,0,0,0,.56-2.2,2.49,2.49,0,0,0-.4-1.74,1.54,1.54,0,0,0-1.28-.61,2.53,2.53,0,0,0-1.66.67A4.58,4.58,0,0,0,95.2,127,8.09,8.09,0,0,0,94.66,129.15Z" style="fill: rgb(12, 90, 219); transform-origin: 97.8381px 128.137px;" id="eluowsl0kdn5r" class="animable"></path><rect x="149.49" y="150.78" width="25.98" height="1.04" style="fill: rgb(12, 90, 219); transform-origin: 162.48px 151.3px;" id="elsk2d35dbntk" class="animable"></rect><rect x="163.75" y="157.4" width="18.28" height="1.04" style="fill: rgb(12, 90, 219); transform-origin: 172.89px 157.92px;" id="elzowbctoh3h" class="animable"></rect><rect x="76.4" y="233.84" width="16.84" height="1.04" style="fill: rgb(12, 90, 219); transform-origin: 84.82px 234.36px;" id="el835zf1n4zth" class="animable"></rect><rect x="90.66" y="240.45" width="9.14" height="1.04" style="fill: rgb(12, 90, 219); transform-origin: 95.23px 240.97px;" id="el2v53xeq74wr" class="animable"></rect><rect x="76.4" y="182.47" width="9.14" height="1.04" style="fill: rgb(12, 90, 219); transform-origin: 80.97px 182.99px;" id="elawbtr46iixs" class="animable"></rect><rect x="139.14" y="150.78" width="5.57" height="1.04" style="fill: rgb(12, 90, 219); transform-origin: 141.925px 151.3px;" id="eln9vz5uh9g1" class="animable"></rect></g><defs>     <filter id="active" height="200%">         <feMorphology in="SourceAlpha" result="DILATED" operator="dilate" radius="2"></feMorphology>                <feFlood flood-color="#32DFEC" flood-opacity="1" result="PINK"></feFlood>        <feComposite in="PINK" in2="DILATED" operator="in" result="OUTLINE"></feComposite>        <feMerge>            <feMergeNode in="OUTLINE"></feMergeNode>            <feMergeNode in="SourceGraphic"></feMergeNode>        </feMerge>    </filter>    <filter id="hover" height="200%">        <feMorphology in="SourceAlpha" result="DILATED" operator="dilate" radius="2"></feMorphology>                <feFlood flood-color="#ff0000" flood-opacity="0.5" result="PINK"></feFlood>        <feComposite in="PINK" in2="DILATED" operator="in" result="OUTLINE"></feComposite>        <feMerge>            <feMergeNode in="OUTLINE"></feMergeNode>            <feMergeNode in="SourceGraphic"></feMergeNode>        </feMerge>            <feColorMatrix type="matrix" values="0   0   0   0   0                0   1   0   0   0                0   0   0   0   0                0   0   0   1   0 "></feColorMatrix>    </filter></defs></svg>