<?xml version="1.0" encoding="utf-8"?>
<!-- Generator: Adobe Illustrator 21.0.0, SVG Export Plug-In . SVG Version: 6.00 Build 0)  -->
<svg version="1.1" id="Layer_1" xmlns="http://www.w3.org/2000/svg" xmlns:xlink="http://www.w3.org/1999/xlink" x="0px" y="0px"
	 viewBox="0 0 509.1 495.5" style="enable-background:new 0 0 509.1 495.5;" xml:space="preserve">
<style type="text/css">
	.st0{opacity:0.59;}
	.st1{fill:#53BDF9;}
	.st2{fill:#E3F4FC;}
	.st3{fill:#C0ECFF;}
	.st4{fill:#FCF1F9;}
	.st5{fill:#F7BD3B;}
	.st6{fill:#D6433B;}
	.st7{fill:#145BD7;}
	.st8{fill:#1BA05F;}
	.st9{fill:url(#SVGID_1_);}
	.st10{fill:url(#SVGID_2_);}
	.st11{fill:url(#SVGID_3_);}
	.st12{fill:url(#SVGID_4_);}
	.st13{fill:#005FBA;}
	.st14{fill:url(#SVGID_5_);}
	.st15{fill:#1981D1;}
	.st16{fill:#E6EDF4;}
	.st17{fill:#FFFFFF;}
	.st18{fill:#106AC1;}
	.st19{display:none;fill:url(#SVGID_6_);}
	.st20{fill:#F7B1A6;}
	.st21{fill:#A4CFEA;}
	.st22{fill:#2E7CED;}
	.st23{fill:#148E4E;}
	.st24{fill:#F9C764;}
	.st25{fill:#1D6ADB;}
	.st26{fill:#4D8FFE;}
</style>
<g class="st0">
	<g>
		<g>
			<circle class="st1" cx="243.2" cy="252.2" r="201"/>
		</g>
	</g>
	<g>
		<g>
			<path class="st1" d="M243.2,495.5C109.1,495.5,0,386.3,0,252.2S109.1,9,243.2,9c134.1,0,243.2,109.1,243.2,243.2
				S377.3,495.5,243.2,495.5z M243.2,41.9c-116,0-210.3,94.3-210.3,210.3s94.3,210.3,210.3,210.3c116,0,210.3-94.3,210.3-210.3
				S359.2,41.9,243.2,41.9z"/>
		</g>
	</g>
	<g>
		<g>
			<path class="st1" d="M478.4,376.3l-4.2-2.2c19.7-37.3,30.2-79.5,30.2-121.9c0-112.6-71.7-212.1-178.4-247.8l1.5-4.5
				c108.6,36.3,181.6,137.6,181.6,252.2C509.1,295.5,498.5,338.4,478.4,376.3z"/>
		</g>
	</g>
	<g>
		<path class="st2" d="M362.5,85.1c-8.5,0-15.4-6.9-15.4-15.4c0-8.5,6.9-15.4,15.4-15.4c8.5,0,15.4,6.9,15.4,15.4
			C377.9,78.1,371,85.1,362.5,85.1z M362.5,56.6c-7.2,0-13.1,5.9-13.1,13.1c0,7.2,5.9,13.1,13.1,13.1c7.2,0,13.1-5.9,13.1-13.1
			C375.6,62.4,369.7,56.6,362.5,56.6z"/>
	</g>
	<g>
		<path class="st3" d="M205.4,171.4H111c-4.9,0-8.9-4-8.9-8.9l0,0c0-4.9,4-8.9,8.9-8.9h94.4c4.9,0,8.9,4,8.9,8.9l0,0
			C214.3,167.4,210.3,171.4,205.4,171.4z"/>
	</g>
	<g>
		<path class="st4" d="M195.9,171.4h-75.3c-2,0-3.6-1.6-3.6-3.6v-11c0-2,1.6-3.6,3.6-3.6h75.3c2,0,3.6,1.6,3.6,3.6v11
			C199.6,169.7,197.9,171.4,195.9,171.4z"/>
	</g>
</g>
<g>
	<rect x="88.8" y="62.8" class="st5" width="16.3" height="372.7"/>
	<polygon class="st5" points="96.9,71 71.7,71 84.3,49.1 96.9,27.3 109.5,49.1 122.1,71 	"/>
	<rect x="116.4" y="84.1" class="st6" width="16.3" height="351.3"/>
	<polygon class="st6" points="124.6,102.7 99.3,102.7 111.9,80.9 124.6,59 137.2,80.9 149.8,102.7 	"/>
	<rect x="149.8" y="37.9" class="st7" width="22.1" height="397.4"/>
	<polygon class="st7" points="160,47.6 134.7,47.6 147.4,25.7 160,3.9 172.6,25.7 185.2,47.6 	"/>
	<rect x="179.4" y="108.8" class="st8" width="16.3" height="326.7"/>
	<linearGradient id="SVGID_1_" gradientUnits="userSpaceOnUse" x1="96.9409" y1="376.6296" x2="96.9409" y2="397.1844">
		<stop  offset="8.461540e-02" style="stop-color:#D48633"/>
		<stop  offset="0.9462" style="stop-color:#F7BD3B"/>
	</linearGradient>
	<rect x="88.8" y="197.8" class="st9" width="16.3" height="200.3"/>
	<linearGradient id="SVGID_2_" gradientUnits="userSpaceOnUse" x1="124.581" y1="368.463" x2="124.581" y2="393.4718">
		<stop  offset="8.461540e-02" style="stop-color:#DB1D32"/>
		<stop  offset="1" style="stop-color:#D6433B"/>
	</linearGradient>
	<rect x="116.4" y="209.3" class="st10" width="16.3" height="188.8"/>
	<linearGradient id="SVGID_3_" gradientUnits="userSpaceOnUse" x1="160.8822" y1="376.7963" x2="160.8822" y2="397.7999">
		<stop  offset="8.461540e-02" style="stop-color:#113BB4"/>
		<stop  offset="1" style="stop-color:#145BD7"/>
	</linearGradient>
	<rect x="149.8" y="184.5" class="st11" width="22.1" height="213.6"/>
	<linearGradient id="SVGID_4_" gradientUnits="userSpaceOnUse" x1="187.5448" y1="383.7963" x2="187.5448" y2="397.7964">
		<stop  offset="8.461540e-02" style="stop-color:#157D4A"/>
		<stop  offset="0.9462" style="stop-color:#1BA05F"/>
	</linearGradient>
	<rect x="179.4" y="222.6" class="st12" width="16.3" height="175.6"/>
	<polygon class="st8" points="187.5,118.6 162.3,118.6 174.9,96.8 187.5,74.9 200.1,96.8 212.8,118.6 	"/>
</g>
<g>
	<polygon class="st13" points="305.4,422.9 201.1,422.9 224.6,352.3 281.8,352.3 	"/>
	<linearGradient id="SVGID_5_" gradientUnits="userSpaceOnUse" x1="101.4317" y1="112.1954" x2="338.7879" y2="349.5516">
		<stop  offset="0" style="stop-color:#107CC1"/>
		<stop  offset="1" style="stop-color:#106AC1"/>
	</linearGradient>
	<path class="st14" d="M419.8,380.3H83c-7.2,0-13-5.8-13-13V157c0-7.2,5.8-13,13-13h336.9c7.2,0,13,5.8,13,13v210.2
		C432.8,374.5,427,380.3,419.8,380.3z"/>
	<polygon class="st15" points="206.2,380.3 226.3,380.3 287.7,144 267.7,144 	"/>
	<path class="st16" d="M427.2,347.4H75.3V168.5c0-8.1,6.6-14.8,14.8-14.8h322.4c8.1,0,14.8,6.6,14.8,14.8V347.4z"/>
	<circle class="st17" cx="253.8" cy="364.5" r="12.2"/>
	<circle class="st13" cx="253.8" cy="364.5" r="9.7"/>
	<path class="st18" d="M311.1,430.2H193l0,0c0-8.7,7.1-15.8,15.8-15.8h86.5C304,414.4,311.1,421.5,311.1,430.2L311.1,430.2z"/>
	<path class="st13" d="M193.7,425.3c-0.5,1.5-0.8,3.2-0.8,4.9h118.1c0-1.7-0.3-3.3-0.8-4.9H193.7z"/>
	<path class="st17" d="M426.8,347.4h-123l39-193.6h68.2c8.7,0,15.8,7.1,15.8,15.8V347.4z"/>
	<polygon class="st17" points="234.8,347.4 214.8,347.4 265.1,153.8 285.2,153.8 	"/>
</g>
<radialGradient id="SVGID_6_" cx="250.9539" cy="327.4627" r="175.6694" gradientUnits="userSpaceOnUse">
	<stop  offset="0" style="stop-color:#386AEE"/>
	<stop  offset="1" style="stop-color:#37A4ED"/>
</radialGradient>
<rect x="-48.6" y="429.5" class="st19" width="599.1" height="97.7"/>
<g>
	<g>
		<g>
			<path class="st6" d="M143.5,293.3v-18.7c3.4,2.8,7.1,5,11.1,6.4c4,1.4,8,2.1,12.1,2.1c2.4,0,4.5-0.2,6.2-0.6
				c1.8-0.4,3.3-1,4.5-1.8c1.2-0.8,2.1-1.7,2.7-2.7c0.6-1,0.9-2.2,0.9-3.4c0-1.6-0.5-3.1-1.4-4.4c-0.9-1.3-2.2-2.5-3.8-3.6
				c-1.6-1.1-3.5-2.1-5.8-3.2c-2.2-1-4.6-2-7.2-3.1c-6.6-2.7-11.4-6.1-14.7-10c-3.2-3.9-4.8-8.7-4.8-14.3c0-4.4,0.9-8.1,2.6-11.3
				c1.8-3.1,4.1-5.7,7.2-7.8c3-2,6.5-3.5,10.5-4.5c4-1,8.2-1.4,12.6-1.4c4.4,0,8.2,0.3,11.6,0.8c3.4,0.5,6.5,1.3,9.3,2.4v17.5
				c-1.4-1-2.9-1.8-4.6-2.6c-1.7-0.7-3.4-1.4-5.1-1.8c-1.8-0.5-3.5-0.8-5.2-1.1c-1.7-0.2-3.4-0.4-4.9-0.4c-2.1,0-4.1,0.2-5.9,0.6
				c-1.8,0.4-3.2,1-4.5,1.7c-1.2,0.7-2.1,1.6-2.8,2.7c-0.7,1-1,2.2-1,3.5c0,1.4,0.4,2.7,1.1,3.8c0.7,1.1,1.8,2.2,3.2,3.2
				c1.4,1,3,2,5,2.9c2,1,4.2,1.9,6.6,3c3.4,1.4,6.4,2.9,9,4.5c2.7,1.6,5,3.4,6.9,5.4c1.9,2,3.4,4.3,4.4,6.8c1,2.6,1.5,5.5,1.5,8.9
				c0,4.7-0.9,8.6-2.7,11.8c-1.8,3.2-4.2,5.8-7.2,7.7c-3,2-6.6,3.4-10.6,4.2c-4,0.9-8.3,1.3-12.8,1.3c-4.6,0-9-0.4-13.1-1.2
				C150.1,296,146.5,294.9,143.5,293.3z"/>
		</g>
	</g>
	<g>
		<g>
			<path class="st5" d="M274.9,298h-55.6v-84H273v15.4h-34.7v18.7H271v15.3h-32.7v19.2h36.7V298z"/>
		</g>
	</g>
</g>
<g>
	<polygon class="st20" points="371.1,312.8 368,301 351.6,303.4 	"/>
	<g>
		<g>
			
				<rect x="358.5" y="278.7" transform="matrix(0.7071 -0.7071 0.7071 0.7071 -97.4445 340.5989)" class="st21" width="7.8" height="18.5"/>
		</g>
		<g>
			<g>
				<path class="st7" d="M298.1,284.1c-16.7-16.7-16.7-43.8,0-60.5s43.8-16.7,60.5,0c16.7,16.7,16.7,43.8,0,60.5
					C342,300.8,314.8,300.8,298.1,284.1z M306.5,275.8c12.1,12.1,31.7,12.1,43.7,0c12.1-12.1,12.1-31.7,0-43.7
					c-12.1-12.1-31.7-12.1-43.7,0C294.5,244.1,294.5,263.7,306.5,275.8z"/>
			</g>
		</g>
		<path class="st7" d="M434.1,360.4l0.8-0.8c3.1-3.1,3.1-8.1,0-11.2L379,292.5L367,304.5l55.9,55.9C426,363.5,431,363.5,434.1,360.4
			z"/>
		<polygon class="st22" points="366.2,297.3 367,304.5 379,292.5 371.7,291.7 		"/>
	</g>
	<polygon class="st23" points="398.6,375.6 422.6,426.2 432.2,426.2 410.1,361.5 	"/>
	<path class="st8" d="M398.6,345.1l10.8,9.9c3.1,3.2,4.3,9.1,3.1,13.4l-2.4,8.6l-19.3,20.7l-9.6,28.4h-8.4l5.4-31.3l11-24.6
		l4.9-10.1L398.6,345.1z"/>
	<polygon class="st5" points="413,355.5 392.7,361.5 370.4,329 374.6,317.7 402.2,336.4 	"/>
	<path class="st20" d="M422.2,363.8c0,0,8.8,2.1,13.6-4.9l-10.6,0.8L422.2,363.8z"/>
	<polygon class="st20" points="378,318.1 371.1,312.8 366,315.4 370.4,329.5 374.6,317.7 	"/>
	<path class="st24" d="M374.6,317.7l12.9,1.4l39,39.7l-4.1,5.4L389.2,333l0,0c-7-0.8-12.7-6-14.1-12.9L374.6,317.7z"/>
	<polygon class="st7" points="381.2,426.2 381.2,430.5 360.1,430.5 374.6,426.2 	"/>
	<polygon class="st7" points="381.2,426.2 381.2,430.5 360.1,430.5 374.6,426.2 	"/>
	<polygon class="st7" points="432.2,426.2 432.2,430.5 416.7,430.5 427.3,426.2 	"/>
	<g>
		<polygon class="st20" points="351.6,303.4 363.2,322 371.1,312.8 		"/>
		<polygon class="st6" points="364.6,306.8 370.4,310.1 371.5,301 366,295.5 349.2,299.8 347.1,297 347.1,303.4 351.6,306.9 		"/>
		<polygon class="st20" points="358.7,306.8 356.3,317.7 361.3,315.3 		"/>
		<polygon class="st20" points="361.3,306.9 363.2,305.3 366,307.7 366,312.3 		"/>
	</g>
</g>
<g>
	<path class="st25" d="M340.1,86.4h-29.9c-3.9,0-7.1,3.2-7.1,7.1v25.6c0,3.9,3.2,7.1,7.1,7.1h19.9l8.3,7.4v-7.4h1.7
		c3.9,0,7.1-3.2,7.1-7.1V93.5C347.2,89.6,344,86.4,340.1,86.4z"/>
	<g>
		<path class="st17" d="M337,100.1l-0.8,3.9h-4l-1.2,5.4h4.5l-1,3.9h-4.3l-1.7,7.5h-4.3l1.6-7.5h-4.9l-1.6,7.5h-4.3l1.5-7.5h-4
			l0.8-3.9h4.1l1.1-5.4H314l0.7-3.9h4.4l1.6-7.7h4.4l-1.6,7.7h4.9l1.6-7.7h4.4l-1.6,7.7H337z M327.8,104h-5l-1.2,5.4h5L327.8,104z"
			/>
	</g>
</g>
<path class="st26" d="M339.7,34.7h61.2c8.1,0,14.6,6.5,14.6,14.6v31.5c0,8.1-6.5,14.6-14.6,14.6h-40.7l-17,15.1V95.4h-3.5
	c-8.1,0-14.6-6.5-14.6-14.6V49.3C325.2,41.2,331.7,34.7,339.7,34.7z"/>
<g>
	<circle class="st17" cx="347" cy="65.2" r="5.4"/>
	<circle class="st17" cx="373.3" cy="65.2" r="5.4"/>
	<circle class="st17" cx="399.6" cy="65.2" r="5.4"/>
</g>
</svg>
